<svg width="40" height="33" viewBox="0 0 40 33" fill="none" xmlns="http://www.w3.org/2000/svg">
<rect x="0.595428" y="0.955566" width="39.2727" height="31.9583" rx="2" fill="white"/>
<path d="M31.8551 10.3756C31.8637 10.4075 31.8682 10.4404 31.8682 10.4735V15.616C31.8682 15.7504 31.7963 15.8745 31.6797 15.9413L27.3636 18.4265V23.3519C27.3636 23.4178 27.3463 23.4826 27.3134 23.5397C27.2805 23.5968 27.2332 23.6443 27.1762 23.6773L18.1663 28.8639C18.1457 28.8756 18.1232 28.883 18.1007 28.8911C18.0922 28.8938 18.0843 28.899 18.0754 28.9014C18.0124 28.918 17.9462 28.918 17.8832 28.9014C17.8729 28.8987 17.8635 28.8929 17.8537 28.8892C17.8331 28.8817 17.8115 28.8751 17.7919 28.8639L8.78388 23.6772C8.72664 23.6444 8.67908 23.597 8.64599 23.5399C8.6129 23.4828 8.59546 23.4179 8.59543 23.3519V7.9243C8.59543 7.89048 8.60016 7.85767 8.60852 7.82585C8.61134 7.81503 8.61788 7.80521 8.6217 7.79439C8.6287 7.77476 8.63534 7.75458 8.64561 7.7363C8.65261 7.72412 8.66288 7.7143 8.67134 7.70303C8.68216 7.68803 8.69197 7.67258 8.70461 7.65939C8.71543 7.64867 8.72952 7.64067 8.7417 7.6313C8.75534 7.62003 8.76743 7.60785 8.78288 7.59894H8.78334L13.2875 5.00567C13.3446 4.97284 13.4092 4.95557 13.475 4.95557C13.5408 4.95557 13.6055 4.97284 13.6625 5.00567L18.1667 7.59894H18.1676C18.1826 7.60839 18.1953 7.62003 18.2089 7.63085C18.2211 7.64021 18.2347 7.64867 18.2454 7.65903C18.2586 7.67258 18.268 7.68812 18.2792 7.70303C18.2872 7.7143 18.298 7.72412 18.3045 7.7363C18.3152 7.75503 18.3213 7.77476 18.3289 7.79449C18.3326 7.80521 18.3392 7.81503 18.342 7.8263C18.3506 7.85821 18.3551 7.89121 18.3552 7.9243V17.5601L22.1084 15.3989V10.473C22.1084 10.4403 22.1132 10.4069 22.1216 10.3756C22.1249 10.3643 22.131 10.3545 22.1347 10.3438C22.1422 10.324 22.1488 10.3038 22.1591 10.2856C22.1661 10.2734 22.1763 10.2636 22.1844 10.2523C22.1956 10.2373 22.205 10.2218 22.2181 10.2087C22.229 10.1979 22.2425 10.1899 22.2547 10.1806C22.2688 10.1693 22.281 10.1571 22.296 10.1482H22.2964L26.8011 7.55494C26.8581 7.52207 26.9227 7.50477 26.9886 7.50477C27.0544 7.50477 27.119 7.52207 27.1761 7.55494L31.6802 10.1482C31.6962 10.1576 31.7083 10.1693 31.7224 10.18C31.7341 10.1895 31.7477 10.1979 31.7585 10.2082C31.7716 10.2218 31.781 10.2373 31.7922 10.2523C31.8007 10.2636 31.811 10.2734 31.8176 10.2856C31.8283 10.3038 31.8344 10.324 31.8419 10.3438C31.8462 10.3545 31.8522 10.3643 31.8551 10.3756V10.3756ZM31.1173 15.399V11.1227L29.5411 12.03L27.3635 13.2838V17.5602L31.1178 15.399H31.1173V15.399ZM26.6132 23.1349V18.8556L24.4712 20.0789L18.3547 23.5698V27.8893L26.6132 23.1348V23.1349ZM9.34625 8.57339V23.1349L17.6038 27.8889V23.5703L13.29 21.1288L13.2886 21.1279L13.2868 21.127C13.2722 21.1186 13.26 21.1064 13.2464 21.0961C13.2346 21.0867 13.2211 21.0792 13.2108 21.0688L13.2099 21.0675C13.1977 21.0558 13.1892 21.0412 13.179 21.0281C13.1695 21.0154 13.1583 21.0047 13.1508 20.9916L13.1503 20.9901C13.1419 20.9761 13.1367 20.9592 13.1306 20.9433C13.1245 20.9292 13.1166 20.916 13.1128 20.9011V20.9007C13.1082 20.8828 13.1072 20.864 13.1053 20.8458C13.1035 20.8318 13.0997 20.8177 13.0997 20.8036V10.7347L10.9225 9.4803L9.34625 8.57394V8.57339ZM13.4755 5.76403L9.72261 7.9243L13.4746 10.0845L17.227 7.92376L13.4746 5.76403H13.4755ZM15.4272 19.2457L17.6042 17.9924V8.57339L16.0282 9.48085L13.8504 10.7346V20.1535L15.4272 19.2457V19.2457ZM26.9885 8.3133L23.2362 10.4735L26.9885 12.6338L30.7404 10.473L26.9886 8.3133H26.9885ZM26.6131 13.2838L24.4355 12.03L22.8593 11.1227V15.399L25.0364 16.6524L26.6132 17.5602V13.2838H26.6131ZM17.9788 22.9208L23.4827 19.7786L26.234 18.2084L22.4843 16.0496L18.1672 18.535L14.2324 20.8003L17.9788 22.9208Z" fill="#FF2D20"/>
</svg>
