<svg width="40" height="32" viewBox="0 0 40 32" fill="none" xmlns="http://www.w3.org/2000/svg">
<path d="M31.8551 9.46176C31.8637 9.49367 31.8682 9.52658 31.8682 9.55967V14.7022C31.8682 14.8366 31.7963 14.9607 31.6797 15.0275L27.3636 17.5127V22.4381C27.3636 22.504 27.3463 22.5688 27.3134 22.6259C27.2805 22.683 27.2332 22.7304 27.1762 22.7635L18.1663 27.9501C18.1457 27.9618 18.1232 27.9692 18.1007 27.9773C18.0922 27.98 18.0843 27.9852 18.0754 27.9876C18.0124 28.0042 17.9462 28.0042 17.8832 27.9876C17.8729 27.9848 17.8635 27.9791 17.8537 27.9754C17.8331 27.9678 17.8115 27.9613 17.7919 27.9501L8.78388 22.7634C8.72664 22.7305 8.67908 22.6832 8.64599 22.6261C8.6129 22.5689 8.59546 22.5041 8.59543 22.4381V7.01048C8.59543 6.97667 8.60016 6.94385 8.60852 6.91203C8.61134 6.90121 8.61788 6.89139 8.6217 6.88058C8.6287 6.86094 8.63534 6.84076 8.64561 6.82248C8.65261 6.8103 8.66288 6.80048 8.67134 6.78921C8.68216 6.77421 8.69197 6.75876 8.70461 6.74558C8.71543 6.73485 8.72952 6.72685 8.7417 6.71748C8.75534 6.70621 8.76743 6.69403 8.78288 6.68512H8.78334L13.2875 4.09185C13.3446 4.05902 13.4092 4.04175 13.475 4.04175C13.5408 4.04175 13.6055 4.05902 13.6625 4.09185L18.1667 6.68512H18.1676C18.1826 6.69458 18.1953 6.70621 18.2089 6.71703C18.2211 6.72639 18.2347 6.73485 18.2454 6.74521C18.2586 6.75876 18.268 6.7743 18.2792 6.78921C18.2872 6.80048 18.298 6.8103 18.3045 6.82248C18.3152 6.84121 18.3213 6.86094 18.3289 6.88067C18.3326 6.89139 18.3392 6.90121 18.342 6.91248C18.3506 6.94439 18.3551 6.97739 18.3552 7.01048V16.6463L22.1084 14.4851V9.55921C22.1084 9.52648 22.1132 9.49312 22.1216 9.46176C22.1249 9.45048 22.131 9.44067 22.1347 9.42994C22.1422 9.41021 22.1488 9.38994 22.1591 9.37176C22.1661 9.35958 22.1763 9.34976 22.1844 9.33848C22.1956 9.32348 22.205 9.30803 22.2181 9.29485C22.229 9.28412 22.2425 9.27612 22.2547 9.26676C22.2688 9.25548 22.281 9.2433 22.296 9.23439H22.2964L26.8011 6.64112C26.8581 6.60825 26.9227 6.59095 26.9886 6.59095C27.0544 6.59095 27.119 6.60825 27.1761 6.64112L31.6802 9.23439C31.6962 9.24376 31.7083 9.25549 31.7224 9.26621C31.7341 9.27567 31.7477 9.28412 31.7585 9.29439C31.7716 9.30803 31.781 9.32348 31.7922 9.33848C31.8007 9.34976 31.811 9.35958 31.8176 9.37176C31.8283 9.38994 31.8344 9.41021 31.8419 9.42994C31.8462 9.44067 31.8522 9.45048 31.8551 9.46176ZM31.1173 14.4852V10.2088L29.5411 11.1162L27.3635 12.37V16.6464L31.1178 14.4852H31.1173ZM26.6132 22.2211V17.9418L24.4712 19.1651L18.3547 22.656V26.9755L26.6132 22.2209V22.2211ZM9.34625 7.65958V22.2211L17.6038 26.9751V22.6565L13.29 20.215L13.2886 20.2141L13.2868 20.2132C13.2722 20.2048 13.26 20.1926 13.2464 20.1823C13.2346 20.1728 13.2211 20.1654 13.2108 20.155L13.2099 20.1537C13.1977 20.1419 13.1892 20.1274 13.179 20.1143C13.1695 20.1016 13.1583 20.0908 13.1508 20.0778L13.1503 20.0763C13.1419 20.0623 13.1367 20.0454 13.1306 20.0295C13.1245 20.0154 13.1166 20.0022 13.1128 19.9873V19.9868C13.1082 19.969 13.1072 19.9502 13.1053 19.9319C13.1035 19.9179 13.0997 19.9038 13.0997 19.8898V9.82085L10.9225 8.56648L9.34625 7.66012V7.65958ZM13.4755 4.85021L9.72261 7.01048L13.4746 9.17067L17.227 7.00994L13.4746 4.85021H13.4755ZM15.4272 18.3318L17.6042 17.0786V7.65958L16.0282 8.56703L13.8504 9.82076V19.2397L15.4272 18.3318ZM26.9885 7.39948L23.2362 9.55967L26.9885 11.7199L30.7404 9.55921L26.9886 7.39948H26.9885ZM26.6131 12.37L24.4355 11.1162L22.8593 10.2088V14.4852L25.0364 15.7386L26.6132 16.6464V12.37H26.6131ZM17.9788 22.0069L23.4827 18.8648L26.234 17.2946L22.4843 15.1358L18.1672 17.6212L14.2324 19.8865L17.9788 22.0069Z" fill="#FF2D20"/>
</svg>
