<svg width="40" height="32" viewBox="0 0 40 32" fill="none" xmlns="http://www.w3.org/2000/svg">
<path d="M31.8551 9.42001C31.8637 9.45192 31.8682 9.48483 31.8682 9.51792V14.6605C31.8682 14.7948 31.7963 14.9189 31.6797 14.9857L27.3636 17.4709V22.3964C27.3636 22.4623 27.3463 22.527 27.3134 22.5841C27.2805 22.6412 27.2332 22.6887 27.1762 22.7217L18.1663 27.9084C18.1457 27.92 18.1232 27.9275 18.1007 27.9356C18.0922 27.9383 18.0843 27.9435 18.0754 27.9458C18.0124 27.9624 17.9462 27.9624 17.8832 27.9458C17.8729 27.9431 17.8635 27.9374 17.8537 27.9336C17.8331 27.9261 17.8115 27.9196 17.7919 27.9084L8.78388 22.7216C8.72664 22.6888 8.67908 22.6414 8.64599 22.5843C8.6129 22.5272 8.59546 22.4624 8.59543 22.3964V6.96874C8.59543 6.93492 8.60016 6.9021 8.60852 6.87028C8.61134 6.85946 8.61788 6.84965 8.6217 6.83883C8.6287 6.81919 8.63534 6.79901 8.64561 6.78074C8.65261 6.76855 8.66288 6.75874 8.67134 6.74746C8.68216 6.73246 8.69197 6.71701 8.70461 6.70383C8.71543 6.6931 8.72952 6.6851 8.7417 6.67574C8.75534 6.66446 8.76743 6.65228 8.78288 6.64337H8.78334L13.2875 4.0501C13.3446 4.01728 13.4092 4 13.475 4C13.5408 4 13.6055 4.01728 13.6625 4.0501L18.1667 6.64337H18.1676C18.1826 6.65283 18.1953 6.66446 18.2089 6.67528C18.2211 6.68465 18.2347 6.6931 18.2454 6.70346C18.2586 6.71701 18.268 6.73255 18.2792 6.74746C18.2872 6.75874 18.298 6.76855 18.3045 6.78074C18.3152 6.79946 18.3213 6.81919 18.3289 6.83892C18.3326 6.84965 18.3392 6.85946 18.342 6.87074C18.3506 6.90265 18.3551 6.93565 18.3552 6.96874V16.6046L22.1084 14.4434V9.51746C22.1084 9.48474 22.1132 9.45137 22.1216 9.42001C22.1249 9.40874 22.131 9.39892 22.1347 9.38819C22.1422 9.36846 22.1488 9.34819 22.1591 9.33001C22.1661 9.31783 22.1763 9.30801 22.1844 9.29674C22.1956 9.28174 22.205 9.26628 22.2181 9.2531C22.229 9.24237 22.2425 9.23437 22.2547 9.22501C22.2688 9.21374 22.281 9.20155 22.296 9.19265H22.2964L26.8011 6.59937C26.8581 6.5665 26.9227 6.5492 26.9886 6.5492C27.0544 6.5492 27.119 6.5665 27.1761 6.59937L31.6802 9.19265C31.6962 9.20201 31.7083 9.21374 31.7224 9.22446C31.7341 9.23392 31.7477 9.24237 31.7585 9.25265C31.7716 9.26628 31.781 9.28174 31.7922 9.29674C31.8007 9.30801 31.811 9.31783 31.8176 9.33001C31.8283 9.34819 31.8344 9.36846 31.8419 9.38819C31.8462 9.39892 31.8522 9.40874 31.8551 9.42001V9.42001ZM31.1173 14.4435V10.1671L29.5411 11.0745L27.3635 12.3283V16.6046L31.1178 14.4435H31.1173V14.4435ZM26.6132 22.1794V17.9L24.4712 19.1234L18.3547 22.6143V26.9337L26.6132 22.1792V22.1794ZM9.34625 7.61783V22.1794L17.6038 26.9334V22.6147L13.29 20.1733L13.2886 20.1724L13.2868 20.1715C13.2722 20.163 13.26 20.1508 13.2464 20.1406C13.2346 20.1311 13.2211 20.1236 13.2108 20.1133L13.2099 20.1119C13.1977 20.1002 13.1892 20.0856 13.179 20.0726C13.1695 20.0598 13.1583 20.0491 13.1508 20.036L13.1503 20.0346C13.1419 20.0206 13.1367 20.0036 13.1306 19.9877C13.1245 19.9736 13.1166 19.9605 13.1128 19.9456V19.9451C13.1082 19.9273 13.1072 19.9085 13.1053 19.8902C13.1035 19.8762 13.0997 19.8621 13.0997 19.848V9.7791L10.9225 8.52474L9.34625 7.61837V7.61783ZM13.4755 4.80846L9.72261 6.96874L13.4746 9.12892L17.227 6.96819L13.4746 4.80846H13.4755ZM15.4272 18.2901L17.6042 17.0368V7.61783L16.0282 8.52528L13.8504 9.77901V19.1979L15.4272 18.2901V18.2901ZM26.9885 7.35774L23.2362 9.51792L26.9885 11.6782L30.7404 9.51746L26.9886 7.35774H26.9885ZM26.6131 12.3283L24.4355 11.0745L22.8593 10.1671V14.4435L25.0364 15.6968L26.6132 16.6046V12.3283H26.6131ZM17.9788 21.9652L23.4827 18.823L26.234 17.2528L22.4843 15.094L18.1672 17.5795L14.2324 19.8447L17.9788 21.9652Z" fill="#FF2D20"/>
</svg>
