<svg width="40" height="33" viewBox="0 0 40 33" fill="none" xmlns="http://www.w3.org/2000/svg">
<rect x="0.595428" y="0.997314" width="39.2727" height="31.9583" rx="2" fill="white"/>
<path d="M31.8551 10.4173C31.8637 10.4492 31.8682 10.4821 31.8682 10.5152V15.6578C31.8682 15.7921 31.7963 15.9162 31.6797 15.9831L27.3636 18.4682V23.3937C27.3636 23.4596 27.3463 23.5243 27.3134 23.5815C27.2805 23.6386 27.2332 23.686 27.1762 23.7191L18.1663 28.9057C18.1457 28.9173 18.1232 28.9248 18.1007 28.9329C18.0922 28.9356 18.0843 28.9408 18.0754 28.9431C18.0124 28.9597 17.9462 28.9597 17.8832 28.9431C17.8729 28.9404 17.8635 28.9347 17.8537 28.931C17.8331 28.9234 17.8115 28.9169 17.7919 28.9057L8.78388 23.719C8.72664 23.6861 8.67908 23.6387 8.64599 23.5816C8.6129 23.5245 8.59546 23.4597 8.59543 23.3937V7.96605C8.59543 7.93223 8.60016 7.89941 8.60852 7.8676C8.61134 7.85678 8.61788 7.84696 8.6217 7.83614C8.6287 7.81651 8.63534 7.79632 8.64561 7.77805C8.65261 7.76587 8.66288 7.75605 8.67134 7.74478C8.68216 7.72978 8.69197 7.71432 8.70461 7.70114C8.71543 7.69041 8.72952 7.68241 8.7417 7.67305C8.75534 7.66178 8.76743 7.6496 8.78288 7.64069H8.78334L13.2875 5.04741C13.3446 5.01459 13.4092 4.99731 13.475 4.99731C13.5408 4.99731 13.6055 5.01459 13.6625 5.04741L18.1667 7.64069H18.1676C18.1826 7.65014 18.1953 7.66178 18.2089 7.6726C18.2211 7.68196 18.2347 7.69041 18.2454 7.70078C18.2586 7.71432 18.268 7.72987 18.2792 7.74478C18.2872 7.75605 18.298 7.76587 18.3045 7.77805C18.3152 7.79678 18.3213 7.81651 18.3289 7.83623C18.3326 7.84696 18.3392 7.85678 18.342 7.86805C18.3506 7.89996 18.3551 7.93296 18.3552 7.96605V17.6019L22.1084 15.4407V10.5148C22.1084 10.4821 22.1132 10.4487 22.1216 10.4173C22.1249 10.4061 22.131 10.3962 22.1347 10.3855C22.1422 10.3658 22.1488 10.3455 22.1591 10.3273C22.1661 10.3151 22.1763 10.3053 22.1844 10.2941C22.1956 10.2791 22.205 10.2636 22.2181 10.2504C22.229 10.2397 22.2425 10.2317 22.2547 10.2223C22.2688 10.2111 22.281 10.1989 22.296 10.19H22.2964L26.8011 7.59669C26.8581 7.56382 26.9227 7.54652 26.9886 7.54652C27.0544 7.54652 27.119 7.56382 27.1761 7.59669L31.6802 10.19C31.6962 10.1993 31.7083 10.2111 31.7224 10.2218C31.7341 10.2312 31.7477 10.2397 31.7585 10.25C31.7716 10.2636 31.781 10.2791 31.7922 10.2941C31.8007 10.3053 31.811 10.3151 31.8176 10.3273C31.8283 10.3455 31.8344 10.3658 31.8419 10.3855C31.8462 10.3962 31.8522 10.4061 31.8551 10.4173ZM31.1173 15.4408V11.1644L29.5411 12.0718L27.3635 13.3256V17.602L31.1178 15.4408H31.1173ZM26.6132 23.1767V18.8973L24.4712 20.1207L18.3547 23.6116V27.9311L26.6132 23.1765V23.1767ZM9.34625 8.61514V23.1767L17.6038 27.9307V23.6121L13.29 21.1706L13.2886 21.1697L13.2868 21.1688C13.2722 21.1603 13.26 21.1481 13.2464 21.1379C13.2346 21.1284 13.2211 21.121 13.2108 21.1106L13.2099 21.1092C13.1977 21.0975 13.1892 21.083 13.179 21.0699C13.1695 21.0571 13.1583 21.0464 13.1508 21.0333L13.1503 21.0319C13.1419 21.0179 13.1367 21.001 13.1306 20.9851C13.1245 20.971 13.1166 20.9578 13.1128 20.9429V20.9424C13.1082 20.9246 13.1072 20.9058 13.1053 20.8875C13.1035 20.8735 13.0997 20.8594 13.0997 20.8453V10.7764L10.9225 9.52205L9.34625 8.61569V8.61514ZM13.4755 5.80578L9.72261 7.96605L13.4746 10.1262L17.227 7.96551L13.4746 5.80578H13.4755ZM15.4272 19.2874L17.6042 18.0341V8.61514L16.0282 9.5226L13.8504 10.7763V20.1952L15.4272 19.2874ZM26.9885 8.35505L23.2362 10.5152L26.9885 12.6755L30.7404 10.5148L26.9886 8.35505H26.9885ZM26.6131 13.3256L24.4355 12.0718L22.8593 11.1644V15.4408L25.0364 16.6941L26.6132 17.602V13.3256H26.6131ZM17.9788 22.9625L23.4827 19.8203L26.234 18.2501L22.4843 16.0913L18.1672 18.5768L14.2324 20.8421L17.9788 22.9625Z" fill="#FF2D20"/>
</svg>
