<svg width="38" height="32" viewBox="0 0 38 32" fill="none" xmlns="http://www.w3.org/2000/svg">
<path d="M17.4682 8.59998C16.9682 8.59998 16.4682 8.79998 16.0682 9.19998C15.6682 9.59998 15.4682 10.2 15.4682 10.7C15.4682 11.3 15.6682 11.8 16.0682 12.2C16.4682 12.6 16.9682 12.8 17.4682 12.8C17.9682 12.8 18.4682 12.6 18.8682 12.2C19.2682 11.8 19.4682 11.2 19.4682 10.7C19.4682 10.1 19.2682 9.59998 18.8682 9.19998C18.4682 8.79998 17.9682 8.59998 17.4682 8.59998ZM17.9682 10.6C17.9682 10.7 17.8682 10.8 17.7682 10.9C17.6682 11 17.5682 11.1 17.4682 11.1C17.3682 11.1 17.2682 11.2 17.0682 11.2C16.7682 11.2 16.5682 11.1 16.3682 10.9C16.1682 10.7 16.0682 10.5 16.0682 10.2C16.0682 9.89998 16.1682 9.69998 16.3682 9.49998C16.5682 9.29998 16.7682 9.19998 17.0682 9.19998C17.1682 9.19998 17.3682 9.19998 17.4682 9.29998C17.5682 9.29998 17.6682 9.39998 17.7682 9.49998C17.8682 9.59998 17.9682 9.69998 17.9682 9.79998C17.9682 9.89998 18.0682 10.1 18.0682 10.2C18.0682 10.3 18.0682 10.5 17.9682 10.6Z" fill="#030776"/>
<path d="M14.1682 19.7C13.0682 19.7 12.8682 21.1 12.1682 21.7V23.5C12.1682 23.9 12.3682 24.3 12.5682 24.6C12.8682 24.9 13.2682 25 13.6682 25C14.0682 25 14.4682 24.8 14.7682 24.6C15.0682 24.3 15.1682 23.9 15.1682 23.5V20.3C14.8682 19.9 14.5682 19.7 14.1682 19.7Z" fill="#4F56A6"/>
<path d="M20.7682 20.5V26.4C20.7682 26.8 20.5682 27.2 20.2682 27.5C19.9682 27.8 19.5682 28 19.1682 28C18.7682 28 18.3682 27.8 18.0682 27.5C17.7682 27.2 17.5682 26.8 17.5682 26.4V21.9C18.4682 21.4 18.5682 19.8 19.7682 19.8C20.0682 19.8 20.3682 19.9 20.5682 20.1C20.5682 20.1 20.6682 20.3 20.7682 20.5Z" fill="#4F56A6"/>
<path d="M26.0682 20.4V24.2C26.0682 24.6 25.8682 25 25.6682 25.2C25.3682 25.5 24.9682 25.6 24.6682 25.6C24.2682 25.6 23.8682 25.4 23.5682 25.2C23.2682 24.9 23.1682 24.5 23.1682 24.2V21.8C23.9682 21.3 24.1682 19.7 25.2682 19.7C25.3682 19.7 25.5682 19.7 25.6682 19.8C25.8682 20 25.9682 20.3 26.0682 20.4Z" fill="#4F56A6"/>
<path d="M19.3682 4C13.5682 4 8.86816 9 8.86816 15.1C8.86816 17.2 9.36816 19.1 10.3682 20.8C10.5682 21.1 10.8682 21.3 11.3682 21.3C12.6682 21.3 12.6682 19.2 13.9682 19.2C15.2682 19.2 15.3682 21.3 16.7682 21.3C18.0682 21.3 18.0682 19.2 19.3682 19.2C19.8682 19.2 20.2682 19.5 20.5682 19.9C20.5682 19.9 20.5682 19.9 20.5682 20C20.6682 20.1 20.7682 20.3 20.8682 20.4C20.8682 20.4 20.8682 20.4 20.8682 20.5C21.1682 20.9 21.4682 21.3 22.0682 21.3C23.3682 21.3 23.3682 19.2 24.6682 19.2C25.0682 19.2 25.3682 19.4 25.6682 19.7L25.7682 19.8C25.9682 20 26.0682 20.3 26.1682 20.4V20.5C26.4682 20.9 26.8682 21.3 27.3682 21.3C28.1682 21.3 28.4682 20.6 28.8682 20C29.5682 18.5 29.9682 16.8 29.9682 15.1C29.9682 9 25.1682 4 19.3682 4ZM18.8682 17.8C15.1682 17.8 13.6682 15.7 13.6682 12.7C13.6682 9.7 15.9682 6.9 18.8682 6.9C21.7682 6.9 24.0682 9.7 24.0682 12.7C24.0682 15.7 22.4682 17.8 18.8682 17.8Z" fill="#FB70A9"/>
</svg>
