<svg width="38" height="32" viewBox="0 0 38 32" fill="none" xmlns="http://www.w3.org/2000/svg">
<path d="M19.4212 4.01483C13.5942 4.01483 8.86816 8.97183 8.86816 15.0868C8.86816 17.1768 9.42016 19.1288 10.3782 20.7968C10.6282 21.0758 10.9222 21.2808 11.3432 21.2808C12.6822 21.2808 12.6112 19.2158 13.9502 19.2158C15.2902 19.2158 15.3612 21.2808 16.7002 21.2808C18.0402 21.2808 17.9662 19.2158 19.3062 19.2158C19.8902 19.2158 20.2342 19.6128 20.5462 20.0558C20.3252 19.8508 20.0662 19.7078 19.7262 19.7078C18.5302 19.7078 18.4192 21.3858 17.5252 21.8488V26.3588C17.5401 26.7881 17.7211 27.1947 18.03 27.4931C18.3389 27.7915 18.7517 27.9583 19.1812 27.9583C19.6107 27.9583 20.0234 27.7915 20.3323 27.4931C20.6412 27.1947 20.8222 26.7881 20.8372 26.3588V20.4648C21.1452 20.8978 21.4842 21.2798 22.0572 21.2798C23.3972 21.2798 23.3242 19.2148 24.6632 19.2148C25.1282 19.2148 25.4372 19.4698 25.7032 19.7948C25.5671 19.7371 25.4209 19.7072 25.2732 19.7068C24.1142 19.7068 23.9762 21.2808 23.1552 21.8008V24.2368C23.1552 24.632 23.3121 25.011 23.5916 25.2904C23.871 25.5698 24.25 25.7268 24.6452 25.7268C25.0403 25.7268 25.4193 25.5698 25.6988 25.2904C25.9782 25.011 26.1352 24.632 26.1352 24.2368V20.3848C26.4592 20.8508 26.8052 21.2788 27.4132 21.2788C28.2092 21.2788 28.5062 20.5508 28.8982 19.9588C29.6091 18.4329 29.9758 16.7693 29.9722 15.0858C29.9722 8.97183 25.2482 4.01483 19.4202 4.01483H19.4212ZM18.8552 6.89183C21.7352 6.89183 24.0692 9.67583 24.0692 12.6988C24.0692 15.7218 22.5242 17.8488 18.8552 17.8488C15.1852 17.8488 13.6402 15.7218 13.6402 12.6988C13.6402 9.67583 15.9752 6.89183 18.8552 6.89183V6.89183ZM17.4522 8.55183C16.9337 8.55183 16.4364 8.77919 16.0698 9.1839C15.7031 9.5886 15.4972 10.1375 15.4972 10.7098C15.4972 11.2822 15.7031 11.8311 16.0698 12.2358C16.4364 12.6405 16.9337 12.8678 17.4522 12.8678C17.9707 12.8678 18.4679 12.6405 18.8346 12.2358C19.2012 11.8311 19.4072 11.2822 19.4072 10.7098C19.4072 10.1375 19.2012 9.5886 18.8346 9.1839C18.4679 8.77919 17.9707 8.55183 17.4522 8.55183ZM17.1262 9.21583C17.2547 9.2157 17.382 9.24136 17.5007 9.29136C17.6195 9.34135 17.7274 9.41469 17.8184 9.50719C17.9093 9.59969 17.9814 9.70954 18.0306 9.83044C18.0798 9.95135 18.1052 10.0809 18.1052 10.2118C18.1052 10.3427 18.0798 10.4723 18.0306 10.5932C17.9814 10.7141 17.9093 10.824 17.8184 10.9165C17.7274 11.009 17.6195 11.0823 17.5007 11.1323C17.382 11.1823 17.2547 11.208 17.1262 11.2078C16.867 11.2076 16.6185 11.1025 16.4353 10.9158C16.2521 10.729 16.1492 10.4758 16.1492 10.2118C16.1492 9.94785 16.2521 9.69467 16.4353 9.50791C16.6185 9.32116 16.867 9.2161 17.1262 9.21583V9.21583ZM14.1762 19.7078C13.1022 19.7078 12.9042 21.0628 12.2262 21.6728V23.4548C12.2262 23.85 12.3831 24.229 12.6626 24.5084C12.942 24.7879 13.321 24.9448 13.7162 24.9448C14.1113 24.9448 14.4903 24.7879 14.7698 24.5084C15.0492 24.229 15.2062 23.85 15.2062 23.4548V20.2728C14.9422 19.9488 14.6292 19.7088 14.1762 19.7088V19.7078Z" fill="#64748B"/>
</svg>
