<svg width="38" height="33" viewBox="0 0 38 33" fill="none" xmlns="http://www.w3.org/2000/svg">
<rect x="0.868164" y="0.970398" width="37.104" height="31.9434" rx="2" fill="white"/>
<path d="M19.4212 4.9704C13.5942 4.9704 8.86816 9.9274 8.86816 16.0424C8.86816 18.1324 9.42016 20.0844 10.3782 21.7524C10.6282 22.0314 10.9222 22.2364 11.3432 22.2364C12.6822 22.2364 12.6112 20.1714 13.9502 20.1714C15.2902 20.1714 15.3612 22.2364 16.7002 22.2364C18.0402 22.2364 17.9662 20.1714 19.3062 20.1714C19.8902 20.1714 20.2342 20.5684 20.5462 21.0114C20.3252 20.8064 20.0662 20.6634 19.7262 20.6634C18.5302 20.6634 18.4192 22.3414 17.5252 22.8044V27.3144C17.5401 27.7436 17.7211 28.1503 18.03 28.4487C18.3389 28.7471 18.7517 28.9138 19.1812 28.9138C19.6107 28.9138 20.0234 28.7471 20.3323 28.4487C20.6412 28.1503 20.8222 27.7436 20.8372 27.3144V21.4204C21.1452 21.8534 21.4842 22.2354 22.0572 22.2354C23.3972 22.2354 23.3242 20.1704 24.6632 20.1704C25.1282 20.1704 25.4372 20.4254 25.7032 20.7504C25.5671 20.6927 25.4209 20.6628 25.2732 20.6624C24.1142 20.6624 23.9762 22.2364 23.1552 22.7564V25.1924C23.1552 25.5876 23.3121 25.9666 23.5916 26.246C23.871 26.5254 24.25 26.6824 24.6452 26.6824C25.0403 26.6824 25.4193 26.5254 25.6988 26.246C25.9782 25.9666 26.1352 25.5876 26.1352 25.1924V21.3404C26.4592 21.8064 26.8052 22.2344 27.4132 22.2344C28.2092 22.2344 28.5062 21.5064 28.8982 20.9144C29.6091 19.3885 29.9758 17.7248 29.9722 16.0414C29.9722 9.9274 25.2482 4.9704 19.4202 4.9704H19.4212ZM18.8552 7.8474C21.7352 7.8474 24.0692 10.6314 24.0692 13.6544C24.0692 16.6774 22.5242 18.8044 18.8552 18.8044C15.1852 18.8044 13.6402 16.6774 13.6402 13.6544C13.6402 10.6314 15.9752 7.8474 18.8552 7.8474V7.8474ZM17.4522 9.5074C16.9337 9.5074 16.4364 9.73476 16.0698 10.1395C15.7031 10.5442 15.4972 11.0931 15.4972 11.6654C15.4972 12.2377 15.7031 12.7866 16.0698 13.1913C16.4364 13.596 16.9337 13.8234 17.4522 13.8234C17.9707 13.8234 18.4679 13.596 18.8346 13.1913C19.2012 12.7866 19.4072 12.2377 19.4072 11.6654C19.4072 11.0931 19.2012 10.5442 18.8346 10.1395C18.4679 9.73476 17.9707 9.5074 17.4522 9.5074ZM17.1262 10.1714C17.2547 10.1713 17.382 10.1969 17.5007 10.2469C17.6195 10.2969 17.7274 10.3703 17.8184 10.4628C17.9093 10.5553 17.9814 10.6651 18.0306 10.786C18.0798 10.9069 18.1052 11.0365 18.1052 11.1674C18.1052 11.2983 18.0798 11.4279 18.0306 11.5488C17.9814 11.6697 17.9093 11.7795 17.8184 11.872C17.7274 11.9645 17.6195 12.0379 17.5007 12.0879C17.382 12.1379 17.2547 12.1635 17.1262 12.1634C16.867 12.1631 16.6185 12.0581 16.4353 11.8713C16.2521 11.6846 16.1492 11.4314 16.1492 11.1674C16.1492 10.9034 16.2521 10.6502 16.4353 10.4635C16.6185 10.2767 16.867 10.1717 17.1262 10.1714V10.1714ZM14.1762 20.6634C13.1022 20.6634 12.9042 22.0184 12.2262 22.6284V24.4104C12.2262 24.8056 12.3831 25.1846 12.6626 25.464C12.942 25.7434 13.321 25.9004 13.7162 25.9004C14.1113 25.9004 14.4903 25.7434 14.7698 25.464C15.0492 25.1846 15.2062 24.8056 15.2062 24.4104V21.2284C14.9422 20.9044 14.6292 20.6644 14.1762 20.6644V20.6634Z" fill="#64748B"/>
</svg>
