<svg width="38" height="33" viewBox="0 0 38 33" fill="none" xmlns="http://www.w3.org/2000/svg">
<rect x="0.868164" y="0.955566" width="37.1" height="32" rx="2" fill="white"/>
<path d="M17.4682 9.55554C16.9682 9.55554 16.4682 9.75554 16.0682 10.1555C15.6682 10.5555 15.4682 11.1555 15.4682 11.6555C15.4682 12.2555 15.6682 12.7555 16.0682 13.1555C16.4682 13.5555 16.9682 13.7555 17.4682 13.7555C17.9682 13.7555 18.4682 13.5555 18.8682 13.1555C19.2682 12.7555 19.4682 12.1555 19.4682 11.6555C19.4682 11.0555 19.2682 10.5555 18.8682 10.1555C18.4682 9.75554 17.9682 9.55554 17.4682 9.55554ZM17.9682 11.5555C17.9682 11.6555 17.8682 11.7555 17.7682 11.8555C17.6682 11.9555 17.5682 12.0555 17.4682 12.0555C17.3682 12.0555 17.2682 12.1555 17.0682 12.1555C16.7682 12.1555 16.5682 12.0555 16.3682 11.8555C16.1682 11.6555 16.0682 11.4555 16.0682 11.1555C16.0682 10.8555 16.1682 10.6555 16.3682 10.4555C16.5682 10.2555 16.7682 10.1555 17.0682 10.1555C17.1682 10.1555 17.3682 10.1555 17.4682 10.2555C17.5682 10.2555 17.6682 10.3555 17.7682 10.4555C17.8682 10.5555 17.9682 10.6555 17.9682 10.7555C17.9682 10.8555 18.0682 11.0555 18.0682 11.1555C18.0682 11.2555 18.0682 11.4555 17.9682 11.5555Z" fill="#030776"/>
<path d="M14.1682 20.6556C13.0682 20.6556 12.8682 22.0556 12.1682 22.6556V24.4556C12.1682 24.8556 12.3682 25.2556 12.5682 25.5556C12.8682 25.8556 13.2682 25.9556 13.6682 25.9556C14.0682 25.9556 14.4682 25.7556 14.7682 25.5556C15.0682 25.2556 15.1682 24.8556 15.1682 24.4556V21.2556C14.8682 20.8556 14.5682 20.6556 14.1682 20.6556Z" fill="#4F56A6"/>
<path d="M20.7682 21.4556V27.3556C20.7682 27.7556 20.5682 28.1556 20.2682 28.4556C19.9682 28.7556 19.5682 28.9556 19.1682 28.9556C18.7682 28.9556 18.3682 28.7556 18.0682 28.4556C17.7682 28.1556 17.5682 27.7556 17.5682 27.3556V22.8556C18.4682 22.3556 18.5682 20.7556 19.7682 20.7556C20.0682 20.7556 20.3682 20.8556 20.5682 21.0556C20.5682 21.0556 20.6682 21.2556 20.7682 21.4556Z" fill="#4F56A6"/>
<path d="M26.0682 21.3556V25.1556C26.0682 25.5556 25.8682 25.9556 25.6682 26.1556C25.3682 26.4556 24.9682 26.5556 24.6682 26.5556C24.2682 26.5556 23.8682 26.3556 23.5682 26.1556C23.2682 25.8556 23.1682 25.4556 23.1682 25.1556V22.7556C23.9682 22.2556 24.1682 20.6556 25.2682 20.6556C25.3682 20.6556 25.5682 20.6556 25.6682 20.7556C25.8682 20.9556 25.9682 21.2556 26.0682 21.3556Z" fill="#4F56A6"/>
<path d="M19.3682 4.95557C13.5682 4.95557 8.86816 9.95557 8.86816 16.0556C8.86816 18.1556 9.36816 20.0556 10.3682 21.7556C10.5682 22.0556 10.8682 22.2556 11.3682 22.2556C12.6682 22.2556 12.6682 20.1556 13.9682 20.1556C15.2682 20.1556 15.3682 22.2556 16.7682 22.2556C18.0682 22.2556 18.0682 20.1556 19.3682 20.1556C19.8682 20.1556 20.2682 20.4556 20.5682 20.8556C20.5682 20.8556 20.5682 20.8556 20.5682 20.9556C20.6682 21.0556 20.7682 21.2556 20.8682 21.3556C20.8682 21.3556 20.8682 21.3556 20.8682 21.4556C21.1682 21.8556 21.4682 22.2556 22.0682 22.2556C23.3682 22.2556 23.3682 20.1556 24.6682 20.1556C25.0682 20.1556 25.3682 20.3556 25.6682 20.6556L25.7682 20.7556C25.9682 20.9556 26.0682 21.2556 26.1682 21.3556V21.4556C26.4682 21.8556 26.8682 22.2556 27.3682 22.2556C28.1682 22.2556 28.4682 21.5556 28.8682 20.9556C29.5682 19.4556 29.9682 17.7556 29.9682 16.0556C29.9682 9.95557 25.1682 4.95557 19.3682 4.95557ZM18.8682 18.7556C15.1682 18.7556 13.6682 16.6556 13.6682 13.6556C13.6682 10.6556 15.9682 7.85557 18.8682 7.85557C21.7682 7.85557 24.0682 10.6556 24.0682 13.6556C24.0682 16.6556 22.4682 18.7556 18.8682 18.7556Z" fill="#FB70A9"/>
</svg>
