<svg width="56" height="33" viewBox="0 0 56 33" fill="none" xmlns="http://www.w3.org/2000/svg">
<rect y="0.976196" width="55.8961" height="31.9377" rx="2" fill="white"/>
<path d="M27.9481 4.9762C22.6286 4.9762 19.3038 7.63599 17.974 12.9554C19.9688 10.2956 22.2961 9.29822 24.9558 9.96321C26.4733 10.3425 27.558 11.4436 28.7586 12.6621C30.7144 14.6474 32.9779 16.945 37.9221 16.945C43.2415 16.945 46.5663 14.2852 47.8961 8.96581C45.9013 11.6256 43.5741 12.623 40.9143 11.958C39.3968 11.5787 38.3122 10.4777 37.1115 9.25911C35.1557 7.27381 32.8922 4.9762 27.9481 4.9762ZM17.974 16.945C12.6546 16.945 9.32982 19.6048 8 24.9242C9.99481 22.2645 12.322 21.2671 14.9818 21.932C16.4993 22.3114 17.5839 23.4124 18.7846 24.6309C20.7404 26.6162 23.0039 28.9139 27.9481 28.9139C33.2675 28.9139 36.5923 26.2541 37.9221 20.9346C35.9273 23.5944 33.6001 24.5918 30.9403 23.9268C29.4228 23.5475 28.3381 22.4465 27.1375 21.2279C25.1817 19.2426 22.9182 16.945 17.974 16.945Z" fill="url(#paint0_linear_3_86)"/>
<defs>
<linearGradient id="paint0_linear_3_86" x1="6.89169" y1="12.6362" x2="41.3485" y2="32.5034" gradientUnits="userSpaceOnUse">
<stop stop-color="#2298BD"/>
<stop offset="1" stop-color="#0ED7B5"/>
</linearGradient>
</defs>
</svg>
