<svg width="56" height="32" viewBox="0 0 56 32" fill="none" xmlns="http://www.w3.org/2000/svg">
<path d="M27.9481 4.02063C22.6286 4.02063 19.3038 6.68042 17.974 11.9999C19.9688 9.34006 22.2961 8.34266 24.9558 9.00764C26.4733 9.38697 27.558 10.488 28.7586 11.7066C30.7144 13.6919 32.9779 15.9895 37.9221 15.9895C43.2415 15.9895 46.5663 13.3297 47.8961 8.01024C45.9013 10.67 43.5741 11.6674 40.9143 11.0024C39.3968 10.6231 38.3122 9.52208 37.1115 8.30354C35.1557 6.31824 32.8922 4.02063 27.9481 4.02063ZM17.974 15.9895C12.6546 15.9895 9.32982 18.6493 8 23.9687C9.99481 21.3089 12.322 20.3115 14.9818 20.9765C16.4993 21.3558 17.5839 22.4568 18.7846 23.6754C20.7404 25.6607 23.0039 27.9583 27.9481 27.9583C33.2675 27.9583 36.5923 25.2985 37.9221 19.9791C35.9273 22.6389 33.6001 23.6363 30.9403 22.9713C29.4228 22.592 28.3381 21.4909 27.1375 20.2724C25.1817 18.2871 22.9182 15.9895 17.974 15.9895Z" fill="url(#paint0_linear_3_97)"/>
<defs>
<linearGradient id="paint0_linear_3_97" x1="6.89169" y1="11.6807" x2="41.3485" y2="31.5479" gradientUnits="userSpaceOnUse">
<stop stop-color="#2298BD"/>
<stop offset="1" stop-color="#0ED7B5"/>
</linearGradient>
</defs>
</svg>
