<svg width="56" height="32" viewBox="0 0 56 32" fill="none" xmlns="http://www.w3.org/2000/svg">
<rect y="0.0179443" width="55.8961" height="31.9377" rx="2" fill="white"/>
<path d="M27.9481 4.01794C22.6286 4.01794 19.3038 6.67774 17.974 11.9972C19.9688 9.33737 22.2961 8.33997 24.9558 9.00496C26.4733 9.38428 27.558 10.4853 28.7586 11.7039C30.7144 13.6892 32.9779 15.9868 37.9221 15.9868C43.2415 15.9868 46.5663 13.327 47.8961 8.00755C45.9013 10.6673 43.5741 11.6647 40.9143 10.9998C39.3968 10.6204 38.3122 9.5194 37.1115 8.30085C35.1557 6.31555 32.8922 4.01794 27.9481 4.01794ZM17.974 15.9868C12.6546 15.9868 9.32982 18.6466 8 23.966C9.99481 21.3062 12.322 20.3088 14.9818 20.9738C16.4993 21.3531 17.5839 22.4542 18.7846 23.6727C20.7404 25.658 23.0039 27.9556 27.9481 27.9556C33.2675 27.9556 36.5923 25.2958 37.9221 19.9764C35.9273 22.6362 33.6 23.6336 30.9403 22.9686C29.4228 22.5893 28.3381 21.4882 27.1375 20.2697C25.1817 18.2844 22.9182 15.9868 17.974 15.9868Z" fill="url(#paint0_linear_3_86)"/>
<defs>
<linearGradient id="paint0_linear_3_86" x1="6.89169" y1="11.678" x2="41.3485" y2="31.5452" gradientUnits="userSpaceOnUse">
<stop stop-color="#2298BD"/>
<stop offset="1" stop-color="#0ED7B5"/>
</linearGradient>
</defs>
</svg>
