<svg width="56" height="32" viewBox="0 0 56 32" fill="none" xmlns="http://www.w3.org/2000/svg">
<path d="M27.9481 4.06238C22.6286 4.06238 19.3038 6.72217 17.974 12.0416C19.9688 9.38181 22.2961 8.3844 24.9558 9.04939C26.4733 9.42872 27.558 10.5298 28.7586 11.7483C30.7144 13.7336 32.9779 16.0312 37.9221 16.0312C43.2415 16.0312 46.5663 13.3714 47.8961 8.05199C45.9013 10.7118 43.5741 11.7092 40.9143 11.0442C39.3968 10.6649 38.3122 9.56383 37.1115 8.34529C35.1557 6.35999 32.8922 4.06238 27.9481 4.06238ZM17.974 16.0312C12.6546 16.0312 9.32982 18.691 8 24.0104C9.99481 21.3506 12.322 20.3532 14.9818 21.0182C16.4993 21.3975 17.5839 22.4986 18.7846 23.7171C20.7404 25.7024 23.0039 28 27.9481 28C33.2675 28 36.5923 25.3402 37.9221 20.0208C35.9273 22.6806 33.6 23.678 30.9403 23.013C29.4228 22.6337 28.3381 21.5327 27.1375 20.3141C25.1817 18.3288 22.9182 16.0312 17.974 16.0312Z" fill="url(#paint0_linear_3_97)"/>
<defs>
<linearGradient id="paint0_linear_3_97" x1="6.89169" y1="11.7224" x2="41.3485" y2="31.5896" gradientUnits="userSpaceOnUse">
<stop stop-color="#2298BD"/>
<stop offset="1" stop-color="#0ED7B5"/>
</linearGradient>
</defs>
</svg>
