<svg width="288" height="84" viewBox="0 0 288 84" fill="none" xmlns="http://www.w3.org/2000/svg">
<rect width="288" height="83.4778" rx="4" fill="white"/>
<path d="M39.913 47.1288V56.6644H34.1916C30.1143 56.6644 26.9358 55.678 24.656 53.7051C22.3762 51.6884 21.2364 48.4222 21.2364 43.9065V29.3071H16.7645V19.9688H21.2364V11.0251H32.4818V19.9688H39.8472V29.3071H32.4818V44.038C32.4818 45.134 32.7448 45.9232 33.2709 46.4054C33.797 46.8877 34.6739 47.1288 35.9015 47.1288H39.913Z" fill="#CF0000"/>
<path d="M43.9409 38.2509C43.9409 34.4805 44.6424 31.1704 46.0454 28.3207C47.4921 25.471 49.4431 23.2789 51.8982 21.7444C54.3534 20.2099 57.0935 19.4427 60.1186 19.4427C62.7053 19.4427 64.9631 19.9688 66.8921 21.021C68.865 22.0732 70.3776 23.4542 71.4298 25.1641V19.9688H82.6752V56.6644H71.4298V51.4692C70.3337 53.179 68.7993 54.56 66.8264 55.6122C64.8973 56.6644 62.6395 57.1905 60.0528 57.1905C57.0716 57.1905 54.3534 56.4233 51.8982 54.8888C49.4431 53.3105 47.4921 51.0965 46.0454 48.2468C44.6424 45.3532 43.9409 42.0213 43.9409 38.2509ZM71.4298 38.3166C71.4298 35.5107 70.6406 33.2967 69.0623 31.6746C67.5279 30.0524 65.6427 29.2414 63.4067 29.2414C61.1708 29.2414 59.2637 30.0524 57.6854 31.6746C56.1509 33.2529 55.3837 35.445 55.3837 38.2509C55.3837 41.0567 56.1509 43.2927 57.6854 44.9587C59.2637 46.5808 61.1708 47.3919 63.4067 47.3919C65.6427 47.3919 67.5279 46.5808 69.0623 44.9587C70.6406 43.3365 71.4298 41.1225 71.4298 38.3166Z" fill="#CF0000"/>
<path d="M102.056 8V56.6644H90.8108V8H102.056Z" fill="#CF0000"/>
<path d="M121.451 8V56.6644H110.206V8H121.451Z" fill="#CF0000"/>
<path d="M140.846 25.1641C141.898 23.4542 143.411 22.0732 145.384 21.021C147.356 19.9688 149.614 19.4427 152.157 19.4427C155.182 19.4427 157.922 20.2099 160.377 21.7444C162.833 23.2789 164.762 25.471 166.165 28.3207C167.611 31.1704 168.335 34.4805 168.335 38.2509C168.335 42.0213 167.611 45.3532 166.165 48.2468C164.762 51.0965 162.833 53.3105 160.377 54.8888C157.922 56.4233 155.182 57.1905 152.157 57.1905C149.57 57.1905 147.313 56.6864 145.384 55.678C143.455 54.6258 141.942 53.2448 140.846 51.5349V56.6644H129.601V8H140.846V25.1641ZM156.892 38.2509C156.892 35.445 156.103 33.2529 154.525 31.6746C152.99 30.0524 151.083 29.2414 148.803 29.2414C146.567 29.2414 144.66 30.0524 143.082 31.6746C141.547 33.2967 140.78 35.5107 140.78 38.3166C140.78 41.1225 141.547 43.3365 143.082 44.9587C144.66 46.5808 146.567 47.3919 148.803 47.3919C151.039 47.3919 152.946 46.5808 154.525 44.9587C156.103 43.2927 156.892 41.0567 156.892 38.2509Z" fill="#005A5D"/>
<path d="M185.48 8V56.6644H174.234V8H185.48Z" fill="#005A5D"/>
<path d="M210.333 57.1905C206.738 57.1905 203.494 56.4233 200.6 54.8888C197.75 53.3544 195.493 51.1623 193.827 48.3126C192.204 45.4628 191.393 42.1309 191.393 38.3166C191.393 34.5462 192.226 31.2362 193.892 28.3865C195.558 25.4929 197.838 23.2789 200.732 21.7444C203.625 20.2099 206.87 19.4427 210.465 19.4427C214.06 19.4427 217.304 20.2099 220.197 21.7444C223.091 23.2789 225.371 25.4929 227.037 28.3865C228.703 31.2362 229.536 34.5462 229.536 38.3166C229.536 42.087 228.681 45.419 226.971 48.3126C225.305 51.1623 223.003 53.3544 220.066 54.8888C217.172 56.4233 213.928 57.1905 210.333 57.1905ZM210.333 47.4576C212.481 47.4576 214.301 46.6685 215.791 45.0902C217.326 43.5119 218.093 41.254 218.093 38.3166C218.093 35.3792 217.348 33.1214 215.857 31.5431C214.41 29.9648 212.613 29.1756 210.465 29.1756C208.272 29.1756 206.453 29.9648 205.006 31.5431C203.559 33.0775 202.836 35.3354 202.836 38.3166C202.836 41.254 203.538 43.5119 204.94 45.0902C206.387 46.6685 208.185 47.4576 210.333 47.4576Z" fill="#005A5D"/>
<path d="M249.443 19.4427C252.03 19.4427 254.288 19.9688 256.217 21.021C258.19 22.0732 259.702 23.4542 260.755 25.1641V19.9688H272V56.5987C272 59.9745 271.32 63.0215 269.961 65.7397C268.646 68.5017 266.607 70.6938 263.845 72.316C261.127 73.9381 257.729 74.7492 253.652 74.7492C248.216 74.7492 243.81 73.4559 240.434 70.8692C237.058 68.3264 235.129 64.8629 234.647 60.4787H245.761C246.111 61.8816 246.944 62.9777 248.26 63.7668C249.575 64.5998 251.197 65.0163 253.126 65.0163C255.45 65.0163 257.291 64.3368 258.65 62.9777C260.053 61.6624 260.755 59.5361 260.755 56.5987V51.4034C259.659 53.1132 258.146 54.5162 256.217 55.6122C254.288 56.6644 252.03 57.1905 249.443 57.1905C246.418 57.1905 243.678 56.4233 241.223 54.8888C238.768 53.3105 236.817 51.0965 235.37 48.2468C233.967 45.3532 233.266 42.0213 233.266 38.2509C233.266 34.4805 233.967 31.1704 235.37 28.3207C236.817 25.471 238.768 23.2789 241.223 21.7444C243.678 20.2099 246.418 19.4427 249.443 19.4427ZM260.755 38.3166C260.755 35.5107 259.965 33.2967 258.387 31.6746C256.853 30.0524 254.967 29.2414 252.732 29.2414C250.496 29.2414 248.588 30.0524 247.01 31.6746C245.476 33.2529 244.708 35.445 244.708 38.2509C244.708 41.0567 245.476 43.2927 247.01 44.9587C248.588 46.5808 250.496 47.3919 252.732 47.3919C254.967 47.3919 256.853 46.5808 258.387 44.9587C259.965 43.3365 260.755 41.1225 260.755 38.3166Z" fill="#005A5D"/>
<path d="M24.5193 72.4512H18.8398L17.7935 75.347H16L20.708 62.4H22.6697L27.359 75.347H25.5655L24.5193 72.4512ZM24.0335 71.0687L21.6795 64.4924L19.3255 71.0687H24.0335Z" fill="#23282D"/>
<path d="M52.7268 75.347H51.0267L44.1888 64.9782V75.347H42.4887V62.3066H44.1888L51.0267 72.6567V62.3066H52.7268V75.347Z" fill="#23282D"/>
<path d="M74.6064 75.4778C73.3983 75.4778 72.296 75.1976 71.2996 74.6371C70.3032 74.0642 69.5123 73.2733 68.9269 72.2644C68.354 71.2431 68.0675 70.0972 68.0675 68.8268C68.0675 67.5564 68.354 66.4167 68.9269 65.4079C69.5123 64.3866 70.3032 63.5957 71.2996 63.0352C72.296 62.4623 73.3983 62.1758 74.6064 62.1758C75.827 62.1758 76.9355 62.4623 77.9319 63.0352C78.9283 63.5957 79.713 64.3803 80.2859 65.3892C80.8589 66.3981 81.1453 67.5439 81.1453 68.8268C81.1453 70.1097 80.8589 71.2555 80.2859 72.2644C79.713 73.2733 78.9283 74.0642 77.9319 74.6371C76.9355 75.1976 75.827 75.4778 74.6064 75.4778ZM74.6064 74.0019C75.5157 74.0019 76.3315 73.7901 77.0539 73.3667C77.7887 72.9432 78.3616 72.3391 78.7727 71.5545C79.1961 70.7698 79.4079 69.8606 79.4079 68.8268C79.4079 67.7806 79.1961 66.8714 78.7727 66.0991C78.3616 65.3145 77.7949 64.7104 77.0725 64.2869C76.3501 63.8635 75.5281 63.6517 74.6064 63.6517C73.6848 63.6517 72.8627 63.8635 72.1403 64.2869C71.4179 64.7104 70.845 65.3145 70.4215 66.0991C70.0105 66.8714 69.805 67.7806 69.805 68.8268C69.805 69.8606 70.0105 70.7698 70.4215 71.5545C70.845 72.3391 71.4179 72.9432 72.1403 73.3667C72.8752 73.7901 73.6972 74.0019 74.6064 74.0019Z" fill="#23282D"/>
<path d="M106.706 75.347H105.006L98.1677 64.9782V75.347H96.4676V62.3066H98.1677L105.006 72.6567V62.3066H106.706V75.347Z" fill="#23282D"/>
<path d="M131.799 62.3253L127.558 70.4335V75.347H125.858V70.4335L121.598 62.3253H123.485L126.698 68.9202L129.912 62.3253H131.799Z" fill="#23282D"/>
<path d="M159.878 62.4187V75.347H158.178V65.7068L153.881 75.347H152.686L148.37 65.6881V75.347H146.67V62.4187H148.501L153.283 73.1051L158.066 62.4187H159.878Z" fill="#23282D"/>
<path d="M177.54 62.3253V75.347H175.839V62.3253H177.54Z" fill="#23282D"/>
<path d="M201.53 62.3253V63.7078H197.98V75.347H196.28V63.7078H192.712V62.3253H201.53Z" fill="#23282D"/>
<path d="M225.817 62.3253L221.576 70.4335V75.347H219.876V70.4335L215.617 62.3253H217.504L220.717 68.9202L223.93 62.3253H225.817Z" fill="#23282D"/>
</svg>
