<svg width="231" height="32" viewBox="0 0 231 32" fill="none" xmlns="http://www.w3.org/2000/svg">
<path d="M27.9481 4.02063C22.6286 4.02063 19.3038 6.68042 17.974 11.9999C19.9688 9.34006 22.2961 8.34266 24.9558 9.00764C26.4733 9.38697 27.558 10.488 28.7586 11.7066C30.7144 13.6919 32.9779 15.9895 37.9221 15.9895C43.2415 15.9895 46.5663 13.3297 47.8961 8.01024C45.9013 10.67 43.5741 11.6674 40.9143 11.0024C39.3968 10.6231 38.3122 9.52208 37.1115 8.30354C35.1557 6.31824 32.8922 4.02063 27.9481 4.02063ZM17.974 15.9895C12.6546 15.9895 9.32982 18.6493 8 23.9687C9.99481 21.3089 12.322 20.3115 14.9818 20.9765C16.4993 21.3558 17.5839 22.4568 18.7846 23.6754C20.7404 25.6607 23.0039 27.9583 27.9481 27.9583C33.2675 27.9583 36.5923 25.2985 37.9221 19.9791C35.9273 22.6389 33.6001 23.6363 30.9403 22.9713C29.4228 22.592 28.3381 21.4909 27.1375 20.2724C25.1817 18.2871 22.9182 15.9895 17.974 15.9895Z" fill="url(#paint0_linear_3_96)"/>
<path d="M83.4667 4.07605L107.454 27.9583H84.3128L71.8961 15.5958L83.4667 4.07605Z" fill="#2D3441"/>
<path d="M119.025 4.49725L130.595 16.017L119.025 27.537L107.454 16.017L119.025 4.49725Z" fill="#77C1D2"/>
<path d="M177.855 9.42001C177.864 9.45192 177.868 9.48483 177.868 9.51792V14.6605C177.868 14.7948 177.796 14.9189 177.68 14.9857L173.364 17.4709V22.3964C173.364 22.4623 173.346 22.527 173.313 22.5841C173.281 22.6412 173.233 22.6887 173.176 22.7217L164.166 27.9084C164.146 27.92 164.123 27.9275 164.101 27.9356C164.092 27.9383 164.084 27.9435 164.075 27.9458C164.012 27.9624 163.946 27.9624 163.883 27.9458C163.873 27.9431 163.864 27.9374 163.854 27.9336C163.833 27.9261 163.812 27.9196 163.792 27.9084L154.784 22.7216C154.727 22.6888 154.679 22.6414 154.646 22.5843C154.613 22.5272 154.595 22.4624 154.595 22.3964V6.96874C154.595 6.93492 154.6 6.9021 154.609 6.87028C154.611 6.85946 154.618 6.84965 154.622 6.83883C154.629 6.81919 154.635 6.79901 154.646 6.78074C154.653 6.76855 154.663 6.75874 154.671 6.74746C154.682 6.73246 154.692 6.71701 154.705 6.70383C154.715 6.6931 154.73 6.6851 154.742 6.67574C154.755 6.66446 154.767 6.65228 154.783 6.64337H154.783L159.288 4.0501C159.345 4.01728 159.409 4 159.475 4C159.541 4 159.605 4.01728 159.663 4.0501L164.167 6.64337H164.168C164.183 6.65283 164.195 6.66446 164.209 6.67528C164.221 6.68465 164.235 6.6931 164.245 6.70346C164.259 6.71701 164.268 6.73255 164.279 6.74746C164.287 6.75874 164.298 6.76855 164.305 6.78074C164.315 6.79946 164.321 6.81919 164.329 6.83892C164.333 6.84965 164.339 6.85946 164.342 6.87074C164.351 6.90265 164.355 6.93565 164.355 6.96874V16.6046L168.108 14.4434V9.51746C168.108 9.48474 168.113 9.45137 168.122 9.42001C168.125 9.40874 168.131 9.39892 168.135 9.38819C168.142 9.36846 168.149 9.34819 168.159 9.33001C168.166 9.31783 168.176 9.30801 168.184 9.29674C168.196 9.28174 168.205 9.26628 168.218 9.2531C168.229 9.24237 168.243 9.23437 168.255 9.22501C168.269 9.21374 168.281 9.20155 168.296 9.19265H168.296L172.801 6.59937C172.858 6.5665 172.923 6.5492 172.989 6.5492C173.054 6.5492 173.119 6.5665 173.176 6.59937L177.68 9.19265C177.696 9.20201 177.708 9.21374 177.722 9.22446C177.734 9.23392 177.748 9.24237 177.759 9.25265C177.772 9.26628 177.781 9.28174 177.792 9.29674C177.801 9.30801 177.811 9.31783 177.818 9.33001C177.828 9.34819 177.834 9.36846 177.842 9.38819C177.846 9.39892 177.852 9.40874 177.855 9.42001V9.42001ZM177.117 14.4435V10.1671L175.541 11.0745L173.364 12.3283V16.6046L177.118 14.4435H177.117V14.4435ZM172.613 22.1794V17.9L170.471 19.1234L164.355 22.6143V26.9337L172.613 22.1792V22.1794ZM155.346 7.61783V22.1794L163.604 26.9334V22.6147L159.29 20.1733L159.289 20.1724L159.287 20.1715C159.272 20.163 159.26 20.1508 159.246 20.1406C159.235 20.1311 159.221 20.1236 159.211 20.1133L159.21 20.1119C159.198 20.1002 159.189 20.0856 159.179 20.0726C159.17 20.0598 159.158 20.0491 159.151 20.036L159.15 20.0346C159.142 20.0206 159.137 20.0036 159.131 19.9877C159.125 19.9736 159.117 19.9605 159.113 19.9456V19.9451C159.108 19.9273 159.107 19.9085 159.105 19.8902C159.104 19.8762 159.1 19.8621 159.1 19.848V9.7791L156.923 8.52474L155.346 7.61837V7.61783ZM159.476 4.80846L155.723 6.96874L159.475 9.12892L163.227 6.96819L159.475 4.80846H159.476ZM161.427 18.2901L163.604 17.0368V7.61783L162.028 8.52528L159.85 9.77901V19.1979L161.427 18.2901V18.2901ZM172.989 7.35774L169.236 9.51792L172.989 11.6782L176.74 9.51746L172.989 7.35774H172.989ZM172.613 12.3283L170.436 11.0745L168.859 10.1671V14.4435L171.036 15.6968L172.613 16.6046V12.3283H172.613ZM163.979 21.9652L169.483 18.823L172.234 17.2528L168.484 15.094L164.167 17.5795L160.232 19.8447L163.979 21.9652Z" fill="#FF2D20"/>
<path d="M212.421 4.01483C206.594 4.01483 201.868 8.97183 201.868 15.0868C201.868 17.1768 202.42 19.1288 203.378 20.7968C203.628 21.0758 203.922 21.2808 204.343 21.2808C205.682 21.2808 205.611 19.2158 206.95 19.2158C208.29 19.2158 208.361 21.2808 209.7 21.2808C211.04 21.2808 210.966 19.2158 212.306 19.2158C212.89 19.2158 213.234 19.6128 213.546 20.0558C213.325 19.8508 213.066 19.7078 212.726 19.7078C211.53 19.7078 211.419 21.3858 210.525 21.8488V26.3588C210.54 26.7881 210.721 27.1947 211.03 27.4931C211.339 27.7915 211.752 27.9583 212.181 27.9583C212.611 27.9583 213.023 27.7915 213.332 27.4931C213.641 27.1947 213.822 26.7881 213.837 26.3588V20.4648C214.145 20.8978 214.484 21.2798 215.057 21.2798C216.397 21.2798 216.324 19.2148 217.663 19.2148C218.128 19.2148 218.437 19.4698 218.703 19.7948C218.567 19.7371 218.421 19.7072 218.273 19.7068C217.114 19.7068 216.976 21.2808 216.155 21.8008V24.2368C216.155 24.632 216.312 25.011 216.592 25.2904C216.871 25.5698 217.25 25.7268 217.645 25.7268C218.04 25.7268 218.419 25.5698 218.699 25.2904C218.978 25.011 219.135 24.632 219.135 24.2368V20.3848C219.459 20.8508 219.805 21.2788 220.413 21.2788C221.209 21.2788 221.506 20.5508 221.898 19.9588C222.609 18.4329 222.976 16.7693 222.972 15.0858C222.972 8.97183 218.248 4.01483 212.42 4.01483H212.421ZM211.855 6.89183C214.735 6.89183 217.069 9.67583 217.069 12.6988C217.069 15.7218 215.524 17.8488 211.855 17.8488C208.185 17.8488 206.64 15.7218 206.64 12.6988C206.64 9.67583 208.975 6.89183 211.855 6.89183V6.89183ZM210.452 8.55183C209.934 8.55183 209.436 8.77919 209.07 9.1839C208.703 9.5886 208.497 10.1375 208.497 10.7098C208.497 11.2822 208.703 11.8311 209.07 12.2358C209.436 12.6405 209.934 12.8678 210.452 12.8678C210.971 12.8678 211.468 12.6405 211.835 12.2358C212.201 11.8311 212.407 11.2822 212.407 10.7098C212.407 10.1375 212.201 9.5886 211.835 9.1839C211.468 8.77919 210.971 8.55183 210.452 8.55183ZM210.126 9.21583C210.255 9.2157 210.382 9.24136 210.501 9.29136C210.62 9.34135 210.727 9.41469 210.818 9.50719C210.909 9.59969 210.981 9.70954 211.031 9.83044C211.08 9.95135 211.105 10.0809 211.105 10.2118C211.105 10.3427 211.08 10.4723 211.031 10.5932C210.981 10.7141 210.909 10.824 210.818 10.9165C210.727 11.009 210.62 11.0823 210.501 11.1323C210.382 11.1823 210.255 11.208 210.126 11.2078C209.867 11.2076 209.618 11.1025 209.435 10.9158C209.252 10.729 209.149 10.4758 209.149 10.2118C209.149 9.94785 209.252 9.69467 209.435 9.50791C209.618 9.32116 209.867 9.2161 210.126 9.21583V9.21583ZM207.176 19.7078C206.102 19.7078 205.904 21.0628 205.226 21.6728V23.4548C205.226 23.85 205.383 24.229 205.663 24.5084C205.942 24.7879 206.321 24.9448 206.716 24.9448C207.111 24.9448 207.49 24.7879 207.77 24.5084C208.049 24.229 208.206 23.85 208.206 23.4548V20.2728C207.942 19.9488 207.629 19.7088 207.176 19.7088V19.7078Z" fill="#64748B"/>
<defs>
<linearGradient id="paint0_linear_3_96" x1="6.89169" y1="11.6807" x2="41.3485" y2="31.5479" gradientUnits="userSpaceOnUse">
<stop stop-color="#2298BD"/>
<stop offset="1" stop-color="#0ED7B5"/>
</linearGradient>
</defs>
</svg>
