<svg xmlns="http://www.w3.org/2000/svg" xmlns:xlink="http://www.w3.org/1999/xlink" viewBox="0 0 128 128"><defs><style>.cls-1{fill:url(#linear-gradient);}.cls-2{fill:#337b7d;}.cls-3{fill:#005a5d;}</style><linearGradient id="linear-gradient" x1="7.03" y1="120.97" x2="120.97" y2="7.03" gradientUnits="userSpaceOnUse"><stop offset="0" stop-color="#ccdedf"/><stop offset="1" stop-color="#fff"/></linearGradient></defs><g id="Layer_2" data-name="Layer 2"><g id="logomark"><g id="tallblog-logomark-white-bg"><rect class="cls-1" width="128" height="128" rx="24"/><g id="tallblog-logomark"><path class="cls-2" d="M75.1,75.45a5.26,5.26,0,0,0-4,1.72,7.09,7.09,0,0,0-1.59,5,7.17,7.17,0,0,0,1.57,5A5.05,5.05,0,0,0,75,88.88a5.37,5.37,0,0,0,4-1.74,6.92,6.92,0,0,0,1.67-5,7,7,0,0,0-1.62-5A5.23,5.23,0,0,0,75.1,75.45Z"/><path class="cls-2" d="M46.12,36.47a5.79,5.79,0,0,0-8.35,0,6.62,6.62,0,0,0-1.72,4.85,6.81,6.81,0,0,0,1.72,4.9,5.74,5.74,0,0,0,8.35,0,6.74,6.74,0,0,0,1.71-4.87A6.77,6.77,0,0,0,46.12,36.47Z"/><path class="cls-2" d="M29.81,75.5a5.56,5.56,0,0,0-4.17,1.79,7.77,7.77,0,0,0,0,9.75,5.56,5.56,0,0,0,4.17,1.79A5.64,5.64,0,0,0,34,87a6.78,6.78,0,0,0,1.74-4.9A6.7,6.7,0,0,0,34,77.26,5.71,5.71,0,0,0,29.81,75.5Z"/><path class="cls-2" d="M106.14,75.5A5.64,5.64,0,0,0,102,77.26a6.7,6.7,0,0,0-1.71,4.86A6.85,6.85,0,0,0,102,87a5.75,5.75,0,0,0,8.36,0,7.8,7.8,0,0,0,0-9.75A5.6,5.6,0,0,0,106.14,75.5Z"/><path class="cls-3" d="M118.81,102.32a11.16,11.16,0,0,1-4.49,4.8,14.41,14.41,0,0,1-7.5,1.79,15.65,15.65,0,0,1-9.71-2.82,10.7,10.7,0,0,1-4.25-7.66H101a3.9,3.9,0,0,0,1.84,2.44,6.62,6.62,0,0,0,3.57.9,5.61,5.61,0,0,0,4.08-1.48q1.51-1.47,1.52-4.7V91.77a9.07,9.07,0,0,1-3.33,3.07,10,10,0,0,1-5,1.18,11.07,11.07,0,0,1-6-1.71,11.86,11.86,0,0,1-4.27-4.88,16.21,16.21,0,0,1-1.57-7.31,16,16,0,0,1,1.57-7.29A11.59,11.59,0,0,1,97.69,70a11.14,11.14,0,0,1,6-1.69,10.25,10.25,0,0,1,5,1.16,8.42,8.42,0,0,1,3.31,3V68.69h8V26.86a16,16,0,0,0-16-16H24a16,16,0,0,0-16,16v1h3V21.31h8.25v6.57h5.41v6.85H19.25V45.55a2.27,2.27,0,0,0,.58,1.73,2.8,2.8,0,0,0,1.93.54h2.95v7h-4.2a10.29,10.29,0,0,1-7-2.2C11.83,51.15,11,48.76,11,45.45V34.73H8V85.8a16,16,0,0,0,16,16H72.64a8,8,0,0,1,3.58.85l26.41,13.21A12,12,0,0,0,120,105.12v-6.5A13.93,13.93,0,0,1,118.81,102.32ZM76.32,19.09h8.25V54.82H76.32Zm-14.24,0h8.25V54.82H62.08ZM42.58,89.43a11.86,11.86,0,0,1-4.27,4.88,11.07,11.07,0,0,1-6,1.71,10.47,10.47,0,0,1-5-1.13,8.78,8.78,0,0,1-3.33-3v3.76H15.71V59.91H24v12.6a8.41,8.41,0,0,1,3.33-3,10.33,10.33,0,0,1,5-1.16,11.14,11.14,0,0,1,6,1.69,11.59,11.59,0,0,1,4.27,4.83,16,16,0,0,1,1.57,7.29A16.21,16.21,0,0,1,42.58,89.43ZM44.48,54a10.29,10.29,0,0,1-5,1.16,11,11,0,0,1-6-1.71,11.87,11.87,0,0,1-4.27-4.88,16.32,16.32,0,0,1-1.57-7.31A16.17,16.17,0,0,1,29.22,34a11.78,11.78,0,0,1,4.27-4.83,11.16,11.16,0,0,1,6-1.69,10.43,10.43,0,0,1,5,1.16,8.46,8.46,0,0,1,3.3,3V27.88h8.26V54.82H47.83V51A8.82,8.82,0,0,1,44.48,54ZM56.75,95.63H48.5V59.91h8.25Zm30.49-6.15a12.58,12.58,0,0,1-5.07,4.85A15.11,15.11,0,0,1,75,96a14.83,14.83,0,0,1-7.12-1.69,12.29,12.29,0,0,1-5-4.83,15.65,15.65,0,0,1,0-14.65A12.39,12.39,0,0,1,68,70a15.95,15.95,0,0,1,14.29,0,12.33,12.33,0,0,1,5,4.85,15.39,15.39,0,0,1,0,14.63Z"/></g></g></g></g></svg>