<svg xmlns="http://www.w3.org/2000/svg" viewBox="0 0 128 121.46"><defs><style>.cls-1{fill:#337b7d;}.cls-2{fill:#005a5d;}</style></defs><g id="Layer_2" data-name="Layer 2"><g id="Layer_3" data-name="Layer 3"><g id="tallblog-logomark"><path class="cls-1" d="M76.68,73.82a6,6,0,0,0-4.58,2,8.11,8.11,0,0,0-1.82,5.71,8.21,8.21,0,0,0,1.79,5.68,5.8,5.8,0,0,0,4.5,2,6.14,6.14,0,0,0,4.61-2,7.88,7.88,0,0,0,1.9-5.68,8,8,0,0,0-1.85-5.68A6,6,0,0,0,76.68,73.82Z"/><path class="cls-1" d="M43.56,29.27a6.35,6.35,0,0,0-4.77-2.05,6.43,6.43,0,0,0-4.77,2,7.59,7.59,0,0,0-2,5.54,7.79,7.79,0,0,0,2,5.6,6.56,6.56,0,0,0,9.54,0,7.7,7.7,0,0,0,2-5.57A7.68,7.68,0,0,0,43.56,29.27Z"/><path class="cls-1" d="M24.93,73.87a6.39,6.39,0,0,0-4.78,2,7.72,7.72,0,0,0-1.95,5.57,7.73,7.73,0,0,0,1.95,5.57,6.61,6.61,0,0,0,9.58,0,7.75,7.75,0,0,0,2-5.6,7.59,7.59,0,0,0-2-5.54A6.46,6.46,0,0,0,24.93,73.87Z"/><path class="cls-1" d="M112.16,73.87a6.4,6.4,0,0,0-4.77,2,7.59,7.59,0,0,0-2,5.54,7.79,7.79,0,0,0,2,5.6,6.56,6.56,0,0,0,9.54,0,7.7,7.7,0,0,0,2-5.57,7.68,7.68,0,0,0-2-5.57A6.35,6.35,0,0,0,112.16,73.87Z"/><path class="cls-2" d="M126.64,104.53a12.9,12.9,0,0,1-5.13,5.49,16.61,16.61,0,0,1-8.58,2q-6.84,0-11.09-3.23A12.17,12.17,0,0,1,97,100.08h9.32a4.5,4.5,0,0,0,2.1,2.79,7.62,7.62,0,0,0,4.08,1,6.4,6.4,0,0,0,4.66-1.68c1.16-1.12,1.74-2.92,1.74-5.38V92.47a10.48,10.48,0,0,1-3.81,3.5,11.47,11.47,0,0,1-5.68,1.35,12.66,12.66,0,0,1-6.9-1.95,13.6,13.6,0,0,1-4.88-5.58,20.35,20.35,0,0,1,0-16.69,13.43,13.43,0,0,1,4.88-5.52,12.82,12.82,0,0,1,6.9-1.93A11.75,11.75,0,0,1,115.11,67a9.71,9.71,0,0,1,3.78,3.47V66.09H128V18.29A18.29,18.29,0,0,0,109.71,0H18.29A18.29,18.29,0,0,0,0,18.29v1.15H3.42v-7.5h9.44v7.5H19v7.84H12.86V39.64a2.61,2.61,0,0,0,.66,2,3.26,3.26,0,0,0,2.21.6h3.36v8h-4.8c-3.42,0-6.08-.83-8-2.51s-2.87-4.4-2.87-8.19V27.28H0V85.65a18.28,18.28,0,0,0,18.29,18.28H73.87a9.08,9.08,0,0,1,4.09,1L108.15,120A13.71,13.71,0,0,0,128,107.73v-7.44A15.93,15.93,0,0,1,126.64,104.53ZM78.08,9.4h9.43V50.23H78.08ZM61.8,9.4h9.44V50.23H61.8ZM39.52,89.79a13.53,13.53,0,0,1-4.88,5.58,12.66,12.66,0,0,1-6.9,1.95A11.93,11.93,0,0,1,22.06,96a10.11,10.11,0,0,1-3.81-3.45v4.3H8.82V56.05h9.43v14.4A9.67,9.67,0,0,1,22.06,67a11.79,11.79,0,0,1,5.68-1.33,12.82,12.82,0,0,1,6.9,1.93,13.36,13.36,0,0,1,4.88,5.52,18.34,18.34,0,0,1,1.79,8.33A18.5,18.5,0,0,1,39.52,89.79Zm2.17-40.44A11.89,11.89,0,0,1,36,50.67a12.56,12.56,0,0,1-6.84-2,13.62,13.62,0,0,1-4.89-5.58,18.63,18.63,0,0,1-1.79-8.36,18.47,18.47,0,0,1,1.79-8.33,13.45,13.45,0,0,1,4.89-5.52A12.81,12.81,0,0,1,36,19a11.75,11.75,0,0,1,5.71,1.33,9.71,9.71,0,0,1,3.78,3.47V19.44H55V50.23H45.52V45.87A10.1,10.1,0,0,1,41.69,49.35Zm14,47.53H46.28V56.05h9.43Zm34.85-7a14.35,14.35,0,0,1-5.79,5.54,17.31,17.31,0,0,1-8.2,1.93,17,17,0,0,1-8.14-1.93,14.07,14.07,0,0,1-5.68-5.51,17.86,17.86,0,0,1,0-16.75,14.25,14.25,0,0,1,5.74-5.55,18.24,18.24,0,0,1,16.33,0,14.25,14.25,0,0,1,5.74,5.55,16.44,16.44,0,0,1,2.09,8.36A16.26,16.26,0,0,1,90.56,89.85Z"/></g></g></g></svg>