<svg xmlns="http://www.w3.org/2000/svg" xmlns:xlink="http://www.w3.org/1999/xlink" viewBox="0 0 128 64"><defs><style>.cls-1{fill:url(#linear-gradient);}.cls-2{opacity:0.1;}.cls-3{fill:#337b7d;}.cls-4{fill:#005a5d;}.cls-5{fill:#fff;}.cls-6{fill:url(#linear-gradient-2);}.cls-7{fill:#2d3441;}.cls-8{fill:#77c1d2;}.cls-9{fill:#ff2d20;}.cls-10{fill:#030776;}.cls-11{fill:#4f56a6;}.cls-12{fill:#fb70a9;}</style><linearGradient id="linear-gradient" x1="-0.36" y1="62.01" x2="126.91" y2="2.66" gradientUnits="userSpaceOnUse"><stop offset="0" stop-color="#ccdedf"/><stop offset="1" stop-color="#fff"/></linearGradient><linearGradient id="linear-gradient-2" x1="47.96" y1="768.32" x2="51.66" y2="766.19" gradientTransform="matrix(1, 0, 0, -1, 0, 810)" gradientUnits="userSpaceOnUse"><stop offset="0" stop-color="#2298bd"/><stop offset="1" stop-color="#0ed7b5"/></linearGradient></defs><g id="Layer_2" data-name="Layer 2"><g id="Layer_6" data-name="Layer 6"><g id="tallblog-post-banner"><rect class="cls-1" width="128" height="64" rx="4"/><g id="logo"><g id="tallblog-logomark-white" class="cls-2"><path d="M66.36,30.57a1,1,0,0,0-.72.3,1.55,1.55,0,0,0,0,1.78.88.88,0,0,0,.7.31,1,1,0,0,0,.72-.31,1.23,1.23,0,0,0,.3-.89,1.24,1.24,0,0,0-.29-.88A.92.92,0,0,0,66.36,30.57Z"/><path d="M61.18,23.6a1,1,0,0,0-1.49,0,1.21,1.21,0,0,0-.31.87,1.23,1.23,0,0,0,.31.87,1,1,0,0,0,.75.32,1,1,0,0,0,.74-.31,1.39,1.39,0,0,0,0-1.75Z"/><path d="M58.27,30.57a1,1,0,0,0-.75.32,1.24,1.24,0,0,0-.3.87,1.21,1.21,0,0,0,.3.87,1,1,0,0,0,1.5,0,1.21,1.21,0,0,0,.31-.88,1.16,1.16,0,0,0-.31-.86A1,1,0,0,0,58.27,30.57Z"/><path d="M71.9,30.57a1,1,0,0,0-.75.32,1.2,1.2,0,0,0-.3.86,1.25,1.25,0,0,0,.3.88,1,1,0,0,0,1.5,0,1.21,1.21,0,0,0,.3-.87,1.24,1.24,0,0,0-.3-.87A1,1,0,0,0,71.9,30.57Z"/><path d="M74.16,35.36a2,2,0,0,1-.8.86,2.61,2.61,0,0,1-1.34.32,2.82,2.82,0,0,1-1.73-.5,1.93,1.93,0,0,1-.76-1.37H71a.66.66,0,0,0,.32.43,1.19,1.19,0,0,0,.64.16,1,1,0,0,0,.73-.26,1.11,1.11,0,0,0,.27-.84v-.68a1.65,1.65,0,0,1-.59.55,1.83,1.83,0,0,1-.89.21,1.92,1.92,0,0,1-1.08-.31,2.09,2.09,0,0,1-.76-.87,3.18,3.18,0,0,1,0-2.61,2.13,2.13,0,0,1,.76-.86,2,2,0,0,1,1.08-.3,1.8,1.8,0,0,1,.89.21A1.47,1.47,0,0,1,73,30v-.68h1.43V21.89A2.86,2.86,0,0,0,71.52,19H57.23a2.85,2.85,0,0,0-2.85,2.86v.18h.53V20.9h1.47v1.17h1v1.22h-1v1.93a.39.39,0,0,0,.11.31.46.46,0,0,0,.34.1h.53v1.25h-.75a1.84,1.84,0,0,1-1.25-.39,1.62,1.62,0,0,1-.45-1.28V23.29h-.53v9.12a2.85,2.85,0,0,0,2.85,2.86h8.69a1.43,1.43,0,0,1,.64.15l4.71,2.36a2.15,2.15,0,0,0,3.11-1.92V34.7A2.69,2.69,0,0,1,74.16,35.36ZM66.57,20.5h1.48v6.38H66.57ZM64,20.5h1.48v6.38H64ZM60.55,33.06a2.09,2.09,0,0,1-.76.87,2.06,2.06,0,0,1-2,.11,1.62,1.62,0,0,1-.59-.54v.67H55.75V27.79h1.48V30a1.41,1.41,0,0,1,.59-.54,1.86,1.86,0,0,1,.89-.21,2,2,0,0,1,1.08.3,2.13,2.13,0,0,1,.76.86,3.18,3.18,0,0,1,0,2.61Zm.34-6.32A1.83,1.83,0,0,1,60,27a1.91,1.91,0,0,1-1.07-.31,2.12,2.12,0,0,1-.77-.87,3,3,0,0,1-.28-1.3,3,3,0,0,1,.28-1.31,2.15,2.15,0,0,1,.77-.86A2,2,0,0,1,60,22a1.86,1.86,0,0,1,.89.21,1.54,1.54,0,0,1,.59.54v-.68H63v4.81H61.49V26.2A1.74,1.74,0,0,1,60.89,26.74Zm2.19,7.43H61.61V27.79h1.47Zm5.44-1.1a2.28,2.28,0,0,1-.9.87,2.72,2.72,0,0,1-1.28.3,2.65,2.65,0,0,1-1.27-.3,2.26,2.26,0,0,1-.89-.87,2.52,2.52,0,0,1-.32-1.31,2.61,2.61,0,0,1,.32-1.3,2.22,2.22,0,0,1,.9-.87,2.72,2.72,0,0,1,1.28-.3,2.67,2.67,0,0,1,1.27.3,2.22,2.22,0,0,1,.9.87,2.51,2.51,0,0,1,.33,1.3A2.46,2.46,0,0,1,68.52,33.07Z"/></g></g><g id="logo-2" data-name="logo"><g id="tallblog-logomark-white-2" data-name="tallblog-logomark-white"><path class="cls-3" d="M66,30.19a.9.9,0,0,0-.71.31,1.25,1.25,0,0,0-.29.89,1.28,1.28,0,0,0,.28.89.93.93,0,0,0,.7.31,1,1,0,0,0,.72-.31,1.24,1.24,0,0,0,.3-.89,1.23,1.23,0,0,0-.29-.89A.92.92,0,0,0,66,30.19Z"/><path class="cls-3" d="M60.81,23.23a1,1,0,0,0-.75-.32,1,1,0,0,0-.74.31,1.17,1.17,0,0,0-.31.87,1.21,1.21,0,0,0,.31.88,1,1,0,0,0,.74.32,1,1,0,0,0,.75-.32,1.41,1.41,0,0,0,0-1.74Z"/><path class="cls-3" d="M57.89,30.2a1,1,0,0,0-.74.32,1.38,1.38,0,0,0,0,1.74,1,1,0,0,0,.74.32,1,1,0,0,0,.75-.33,1.18,1.18,0,0,0,.32-.87,1.21,1.21,0,0,0-.31-.87A1,1,0,0,0,57.89,30.2Z"/><path class="cls-3" d="M71.53,30.2a1,1,0,0,0-.75.31,1.38,1.38,0,0,0,0,1.74,1,1,0,0,0,.75.33,1,1,0,0,0,.74-.32,1.38,1.38,0,0,0,0-1.74A1,1,0,0,0,71.53,30.2Z"/><path class="cls-4" d="M73.79,35a2.07,2.07,0,0,1-.8.86,2.63,2.63,0,0,1-1.34.31,2.79,2.79,0,0,1-1.74-.5,1.94,1.94,0,0,1-.76-1.37h1.46a.73.73,0,0,0,.33.44,1.15,1.15,0,0,0,.64.16,1.05,1.05,0,0,0,.73-.26,1.15,1.15,0,0,0,.27-.84V33.1a1.67,1.67,0,0,1-.6.55,1.8,1.8,0,0,1-.89.21,2,2,0,0,1-1.07-.3,2.17,2.17,0,0,1-.77-.87A3,3,0,0,1,69,31.38a3,3,0,0,1,.28-1.3,2,2,0,0,1,.77-.86,1.91,1.91,0,0,1,1.07-.31,1.87,1.87,0,0,1,.9.21,1.62,1.62,0,0,1,.59.54V29H74V21.51a2.86,2.86,0,0,0-2.86-2.85H56.86A2.86,2.86,0,0,0,54,21.51v.18h.54V20.52H56v1.17h1v1.23H56v1.93a.4.4,0,0,0,.1.31.54.54,0,0,0,.35.09H57V26.5h-.75A1.85,1.85,0,0,1,55,26.11a1.62,1.62,0,0,1-.44-1.28V22.92H54V32a2.86,2.86,0,0,0,2.86,2.86h8.68a1.43,1.43,0,0,1,.64.15L70.9,37.4A2.14,2.14,0,0,0,74,35.49V34.33A2.54,2.54,0,0,1,73.79,35ZM66.2,20.13h1.47V26.5H66.2Zm-2.54,0h1.47V26.5H63.66ZM60.18,32.69a2.25,2.25,0,0,1-.77.87,2,2,0,0,1-1.08.3,1.79,1.79,0,0,1-.88-.2,1.5,1.5,0,0,1-.6-.54v.67H55.38V27.41h1.47v2.25a1.58,1.58,0,0,1,.6-.54,1.82,1.82,0,0,1,.88-.21,1.92,1.92,0,0,1,1.08.31,2.09,2.09,0,0,1,.77.86,3,3,0,0,1,.28,1.3A3,3,0,0,1,60.18,32.69Zm.33-6.32a1.92,1.92,0,0,1-.89.2,2,2,0,0,1-1.07-.3,2.23,2.23,0,0,1-.76-.87,2.87,2.87,0,0,1-.28-1.31,2.83,2.83,0,0,1,.28-1.3,2.13,2.13,0,0,1,.76-.86,2,2,0,0,1,1.08-.3,1.8,1.8,0,0,1,.89.2,1.43,1.43,0,0,1,.59.55v-.69h1.48V26.5H61.11v-.68A1.52,1.52,0,0,1,60.51,26.37Zm2.2,7.42H61.23V27.41h1.48Zm5.44-1.1a2.18,2.18,0,0,1-.91.87,2.86,2.86,0,0,1-2.55,0,2.3,2.3,0,0,1-.89-.86,2.62,2.62,0,0,1-.32-1.31,2.55,2.55,0,0,1,.33-1.31,2.26,2.26,0,0,1,.9-.86A2.54,2.54,0,0,1,66,28.91a2.61,2.61,0,0,1,1.28.31,2.17,2.17,0,0,1,.89.86,2.55,2.55,0,0,1,.33,1.31A2.51,2.51,0,0,1,68.15,32.69Z"/></g></g><path class="cls-5" d="M48,40.2h3.71a2,2,0,0,1,2,2v3.14a0,0,0,0,1,0,0H48a2,2,0,0,1-2-2V42.2A2,2,0,0,1,48,40.2Z"/><path class="cls-6" d="M49.86,41.49a1,1,0,0,0-1.07.85.69.69,0,0,1,.75-.32.86.86,0,0,1,.4.29,1.23,1.23,0,0,0,1,.46A1,1,0,0,0,52,41.92a.69.69,0,0,1-.75.32.94.94,0,0,1-.41-.29A1.21,1.21,0,0,0,49.86,41.49Zm-1.07,1.28a1,1,0,0,0-1.08.86.69.69,0,0,1,.75-.32.89.89,0,0,1,.41.29,1.26,1.26,0,0,0,1,.46,1,1,0,0,0,1.07-.86.69.69,0,0,1-.75.32.94.94,0,0,1-.41-.29A1.24,1.24,0,0,0,48.79,42.77Z"/><path class="cls-5" d="M66,40.2h6.29a2,2,0,0,1,2,2v3.14a0,0,0,0,1,0,0H66a2,2,0,0,1-2-2V42.2A2,2,0,0,1,66,40.2Z"/><path class="cls-7" d="M67.23,41.49l2.58,2.57H67.32L66,42.73Z"/><path class="cls-8" d="M71.06,41.53l1.24,1.24L71.06,44l-1.25-1.24Z"/><path class="cls-5" d="M58.29,40.2h1.14a2,2,0,0,1,2,2v3.14a0,0,0,0,1,0,0H58.29a2,2,0,0,1-2-2V42.2A2,2,0,0,1,58.29,40.2Z"/><path class="cls-9" d="M60.1,42.07h0v.55a.05.05,0,0,1,0,0l-.47.26v.55l0,0-1,.55h0l-1-.55,0,0V41.81h0l.48-.28h0l.49.28h0v1l.4-.23v-.53h0l.48-.27h0s0,0,0,0l.49.27h0Zm-.07.54v-.46l-.17.1-.24.13v.46l.41-.23Zm-.49.83V43l-.23.13-.65.37V44l.88-.51Zm-1.85-1.56v1.56l.89.51v-.47l-.47-.26h0V42.11L57.86,42l-.17-.09Zm.44-.31-.4.24.4.23.4-.23-.4-.24ZM58.34,43l.24-.13v-1l-.17.09-.24.14v1Zm1.24-1.17-.4.23.4.23.41-.23-.41-.23Zm0,.53-.23-.13-.17-.1v.46l.23.13.17.1v-.46Zm-.92,1,.59-.34.29-.17-.4-.23-.46.26-.43.25Z"/><path class="cls-5" d="M78.86,40.2H80a2,2,0,0,1,2,2v3.14a0,0,0,0,1,0,0H78.86a2,2,0,0,1-2-2V42.2a2,2,0,0,1,2-2Z"/><path class="cls-10" d="M79.22,42a.22.22,0,0,0-.15.06.27.27,0,0,0-.06.16.25.25,0,0,0,.06.17.22.22,0,0,0,.3,0,.27.27,0,0,0,.06-.17.25.25,0,0,0-.06-.16A.22.22,0,0,0,79.22,42Zm0,.21a.08.08,0,0,1,0,0l0,0h0a.1.1,0,0,1-.08,0,.13.13,0,0,1,0-.08.09.09,0,0,1,0-.07.08.08,0,0,1,.08,0h0s0,0,0,0l0,0v0A.06.06,0,0,1,79.27,42.19Z"/><path class="cls-11" d="M78.87,43.17c-.12,0-.14.15-.22.21v.2a.21.21,0,0,0,0,.11.16.16,0,0,0,.12.05.17.17,0,0,0,.12-.05.15.15,0,0,0,0-.11v-.35A.12.12,0,0,0,78.87,43.17Z"/><path class="cls-11" d="M79.57,43.25v.64a.16.16,0,0,1,0,.11.16.16,0,0,1-.12.06.17.17,0,0,1-.12-.06.16.16,0,0,1,0-.11V43.4c.1,0,.11-.22.24-.22a.11.11,0,0,1,.08,0Z"/><path class="cls-11" d="M80.14,43.24v.41a.18.18,0,0,1,0,.11.17.17,0,0,1-.11,0,.28.28,0,0,1-.12,0,.17.17,0,0,1,0-.11v-.26c.09,0,.11-.22.23-.22h0A.61.61,0,0,1,80.14,43.24Z"/><path class="cls-12" d="M79.42,41.49a1.15,1.15,0,0,0-1.12,1.19,1.18,1.18,0,0,0,.16.61.12.12,0,0,0,.11.05c.14,0,.14-.22.27-.22s.15.22.3.22.14-.22.28-.22a.16.16,0,0,1,.13.07h0l0,0h0s.07.09.13.09.14-.22.28-.22a.16.16,0,0,1,.11.05h0l0,.06h0a.17.17,0,0,0,.13.09c.09,0,.12-.07.16-.14a1.19,1.19,0,0,0-1-1.71Zm0,1.48a.5.5,0,0,1-.56-.55.56.56,0,1,1,1.12,0A.5.5,0,0,1,79.37,43Z"/></g></g></g></svg>