<svg xmlns="http://www.w3.org/2000/svg" xmlns:xlink="http://www.w3.org/1999/xlink" viewBox="0 0 128 64"><defs><style>.cls-1{fill:url(#linear-gradient);}.cls-2{opacity:0.1;}.cls-3{fill:#fff;}</style><linearGradient id="linear-gradient" x1="0.85" y1="61.45" x2="125.73" y2="3.21" gradientUnits="userSpaceOnUse"><stop offset="0" stop-color="#669c9e"/><stop offset="1" stop-color="#e26666"/></linearGradient></defs><g id="Layer_2" data-name="Layer 2"><g id="banners"><g id="tallblog-banner"><rect class="cls-1" width="128" height="64" rx="8"/><g id="tallblog-logomark-white" class="cls-2"><path d="M66.34,36.45a1.6,1.6,0,0,0-1.21.51,2.64,2.64,0,0,0,0,3,1.51,1.51,0,0,0,1.18.52A1.63,1.63,0,0,0,67.53,40a2.52,2.52,0,0,0,0-3A1.55,1.55,0,0,0,66.34,36.45Z"/><path d="M57.62,24.71a1.75,1.75,0,0,0-2.52,0,2,2,0,0,0-.51,1.46,2.08,2.08,0,0,0,.51,1.48,1.75,1.75,0,0,0,2.52,0,2.37,2.37,0,0,0,0-2.94Z"/><path d="M52.71,36.46a1.66,1.66,0,0,0-1.26.54,2.34,2.34,0,0,0,0,2.94,1.66,1.66,0,0,0,1.26.54A1.7,1.7,0,0,0,54,39.93,2.36,2.36,0,0,0,54,37,1.73,1.73,0,0,0,52.71,36.46Z"/><path d="M75.69,36.46a1.71,1.71,0,0,0-1.26.53,2,2,0,0,0-.51,1.46,2.08,2.08,0,0,0,.51,1.48,1.73,1.73,0,0,0,2.52,0A2.37,2.37,0,0,0,77,37,1.69,1.69,0,0,0,75.69,36.46Z"/><path d="M79.5,44.54A3.29,3.29,0,0,1,78.15,46a4.35,4.35,0,0,1-2.26.54A4.69,4.69,0,0,1,73,45.67a3.19,3.19,0,0,1-1.28-2.3h2.46a1.18,1.18,0,0,0,.55.73,2,2,0,0,0,1.08.27A1.69,1.69,0,0,0,77,43.93a1.9,1.9,0,0,0,.46-1.42V41.36a2.72,2.72,0,0,1-1,.93,3.13,3.13,0,0,1-1.5.35,3.38,3.38,0,0,1-1.82-.51,3.61,3.61,0,0,1-1.28-1.47,4.86,4.86,0,0,1-.47-2.21,4.77,4.77,0,0,1,.47-2.19,3.49,3.49,0,0,1,1.28-1.45A3.38,3.38,0,0,1,75,34.3a3.09,3.09,0,0,1,1.51.35,2.5,2.5,0,0,1,1,.91V34.41h2.4V21.82A4.82,4.82,0,0,0,75,17H51a4.82,4.82,0,0,0-4.82,4.82v.3H47v-2h2.49v2h1.62v2.07H49.53v3.25a.68.68,0,0,0,.17.53.89.89,0,0,0,.58.16h.89v2.1H49.9a3.07,3.07,0,0,1-2.1-.66A2.71,2.71,0,0,1,47,27.41V24.19h-.9V39.57A4.81,4.81,0,0,0,51,44.38H65.6a2.39,2.39,0,0,1,1.08.26l7.95,4a3.61,3.61,0,0,0,5.23-3.23v-2A4.2,4.2,0,0,1,79.5,44.54ZM66.71,19.48h2.48V30.23H66.71Zm-4.29,0h2.49V30.23H62.42ZM56.55,40.66a3.56,3.56,0,0,1-1.29,1.47,3.32,3.32,0,0,1-1.81.51A3.13,3.13,0,0,1,52,42.3a2.6,2.6,0,0,1-1-.91v1.14H48.46V31.77H51v3.79a2.46,2.46,0,0,1,1-.91,3.08,3.08,0,0,1,1.5-.35,3.32,3.32,0,0,1,1.81.51,3.44,3.44,0,0,1,1.29,1.45A4.77,4.77,0,0,1,57,38.45,4.86,4.86,0,0,1,56.55,40.66ZM57.12,30a3.13,3.13,0,0,1-1.5.35,3.29,3.29,0,0,1-1.81-.52,3.52,3.52,0,0,1-1.28-1.46,4.86,4.86,0,0,1-.47-2.21A4.77,4.77,0,0,1,52.53,24a3.43,3.43,0,0,1,1.28-1.45A3.38,3.38,0,0,1,55.63,22a3.06,3.06,0,0,1,1.51.35,2.5,2.5,0,0,1,1,.91V22.12h2.49v8.11H58.13V29.09A2.71,2.71,0,0,1,57.12,30Zm3.7,12.53H58.33V31.77h2.49ZM70,40.67a3.77,3.77,0,0,1-1.53,1.46,4.53,4.53,0,0,1-2.16.51,4.45,4.45,0,0,1-2.14-.51,3.67,3.67,0,0,1-1.5-1.45,4.39,4.39,0,0,1-.54-2.21,4.28,4.28,0,0,1,.55-2.2,3.72,3.72,0,0,1,1.51-1.46,4.79,4.79,0,0,1,4.3,0A3.66,3.66,0,0,1,70,36.27a4.6,4.6,0,0,1,0,4.4Z"/></g><g id="tallblog-logomark-white-2" data-name="tallblog-logomark-white"><path class="cls-3" d="M67.34,35.45a1.6,1.6,0,0,0-1.21.51,2.64,2.64,0,0,0,0,3,1.51,1.51,0,0,0,1.18.52A1.63,1.63,0,0,0,68.53,39a2.52,2.52,0,0,0,0-3A1.55,1.55,0,0,0,67.34,35.45Z"/><path class="cls-3" d="M58.62,23.71a1.75,1.75,0,0,0-2.52,0,2,2,0,0,0-.51,1.46,2.08,2.08,0,0,0,.51,1.48,1.75,1.75,0,0,0,2.52,0,2.37,2.37,0,0,0,0-2.94Z"/><path class="cls-3" d="M53.71,35.46a1.66,1.66,0,0,0-1.26.54,2.34,2.34,0,0,0,0,2.94,1.66,1.66,0,0,0,1.26.54A1.7,1.7,0,0,0,55,38.93,2.36,2.36,0,0,0,55,36,1.73,1.73,0,0,0,53.71,35.46Z"/><path class="cls-3" d="M76.69,35.46a1.71,1.71,0,0,0-1.26.53,2,2,0,0,0-.51,1.46,2.08,2.08,0,0,0,.51,1.48,1.73,1.73,0,0,0,2.52,0A2.37,2.37,0,0,0,78,36,1.69,1.69,0,0,0,76.69,35.46Z"/><path class="cls-3" d="M80.5,43.54A3.29,3.29,0,0,1,79.15,45a4.35,4.35,0,0,1-2.26.54A4.69,4.69,0,0,1,74,44.67a3.19,3.19,0,0,1-1.28-2.3h2.46a1.18,1.18,0,0,0,.55.73,2,2,0,0,0,1.08.27A1.69,1.69,0,0,0,78,42.93a1.9,1.9,0,0,0,.46-1.42V40.36a2.72,2.72,0,0,1-1,.93,3.13,3.13,0,0,1-1.5.35,3.38,3.38,0,0,1-1.82-.51,3.61,3.61,0,0,1-1.28-1.47,4.86,4.86,0,0,1-.47-2.21,4.77,4.77,0,0,1,.47-2.19,3.49,3.49,0,0,1,1.28-1.45A3.38,3.38,0,0,1,76,33.3a3.09,3.09,0,0,1,1.51.35,2.5,2.5,0,0,1,1,.91V33.41h2.4V20.82A4.82,4.82,0,0,0,76,16H52a4.82,4.82,0,0,0-4.82,4.82v.3H48v-2h2.49v2h1.62v2.07H50.53v3.25a.68.68,0,0,0,.17.53.89.89,0,0,0,.58.16h.89v2.1H50.9a3.07,3.07,0,0,1-2.1-.66A2.71,2.71,0,0,1,48,26.41V23.19h-.9V38.57A4.81,4.81,0,0,0,52,43.38H66.6a2.39,2.39,0,0,1,1.08.26l7.95,4a3.61,3.61,0,0,0,5.23-3.23v-2A4.2,4.2,0,0,1,80.5,43.54ZM67.71,18.48h2.48V29.23H67.71Zm-4.29,0h2.49V29.23H63.42ZM57.55,39.66a3.56,3.56,0,0,1-1.29,1.47,3.32,3.32,0,0,1-1.81.51A3.13,3.13,0,0,1,53,41.3a2.6,2.6,0,0,1-1-.91v1.14H49.46V30.77H52v3.79a2.46,2.46,0,0,1,1-.91,3.08,3.08,0,0,1,1.5-.35,3.32,3.32,0,0,1,1.81.51,3.44,3.44,0,0,1,1.29,1.45A4.77,4.77,0,0,1,58,37.45,4.86,4.86,0,0,1,57.55,39.66ZM58.12,29a3.13,3.13,0,0,1-1.5.35,3.29,3.29,0,0,1-1.81-.52,3.52,3.52,0,0,1-1.28-1.46,4.86,4.86,0,0,1-.47-2.21A4.77,4.77,0,0,1,53.53,23a3.43,3.43,0,0,1,1.28-1.45A3.38,3.38,0,0,1,56.63,21a3.06,3.06,0,0,1,1.51.35,2.5,2.5,0,0,1,1,.91V21.12h2.49v8.11H59.13V28.09A2.71,2.71,0,0,1,58.12,29Zm3.7,12.53H59.33V30.77h2.49ZM71,39.67a3.77,3.77,0,0,1-1.53,1.46,4.53,4.53,0,0,1-2.16.51,4.45,4.45,0,0,1-2.14-.51,3.67,3.67,0,0,1-1.5-1.45,4.39,4.39,0,0,1-.54-2.21,4.28,4.28,0,0,1,.55-2.2,3.72,3.72,0,0,1,1.51-1.46,4.79,4.79,0,0,1,4.3,0A3.66,3.66,0,0,1,71,35.27a4.6,4.6,0,0,1,0,4.4Z"/></g></g></g></g></svg>