<svg width="231" height="33" viewBox="0 0 231 33" fill="none" xmlns="http://www.w3.org/2000/svg">
<rect y="0.976196" width="55.8961" height="31.9377" rx="2" fill="white"/>
<path d="M27.9481 4.9762C22.6286 4.9762 19.3038 7.63599 17.974 12.9554C19.9688 10.2956 22.2961 9.29822 24.9558 9.96321C26.4733 10.3425 27.558 11.4436 28.7586 12.6621C30.7144 14.6474 32.9779 16.945 37.9221 16.945C43.2415 16.945 46.5663 14.2852 47.8961 8.96581C45.9013 11.6256 43.5741 12.623 40.9143 11.958C39.3968 11.5787 38.3122 10.4777 37.1115 9.25911C35.1557 7.27381 32.8922 4.9762 27.9481 4.9762ZM17.974 16.945C12.6546 16.945 9.32982 19.6048 8 24.9242C9.99481 22.2645 12.322 21.2671 14.9818 21.932C16.4993 22.3114 17.5839 23.4124 18.7846 24.6309C20.7404 26.6162 23.0039 28.9139 27.9481 28.9139C33.2675 28.9139 36.5923 26.2541 37.9221 20.9346C35.9273 23.5944 33.6001 24.5918 30.9403 23.9268C29.4228 23.5475 28.3381 22.4465 27.1375 21.2279C25.1817 19.2426 22.9182 16.945 17.974 16.945Z" fill="url(#paint0_linear_3_93)"/>
<rect x="63.8961" y="1.03162" width="74.6993" height="31.8822" rx="2" fill="white"/>
<path d="M83.4667 5.03162L107.454 28.9139H84.3128L71.8961 16.5514L83.4667 5.03162Z" fill="#2D3441"/>
<path d="M119.025 5.45282L130.595 16.9726L119.025 28.4926L107.454 16.9726L119.025 5.45282Z" fill="#77C1D2"/>
<rect x="146.595" y="0.955566" width="39.2727" height="31.9583" rx="2" fill="white"/>
<path d="M177.855 10.3756C177.864 10.4075 177.868 10.4404 177.868 10.4735V15.616C177.868 15.7504 177.796 15.8745 177.68 15.9413L173.364 18.4265V23.3519C173.364 23.4178 173.346 23.4826 173.313 23.5397C173.281 23.5968 173.233 23.6443 173.176 23.6773L164.166 28.8639C164.146 28.8756 164.123 28.883 164.101 28.8911C164.092 28.8938 164.084 28.899 164.075 28.9014C164.012 28.918 163.946 28.918 163.883 28.9014C163.873 28.8987 163.864 28.8929 163.854 28.8892C163.833 28.8817 163.812 28.8751 163.792 28.8639L154.784 23.6772C154.727 23.6444 154.679 23.597 154.646 23.5399C154.613 23.4828 154.595 23.4179 154.595 23.3519V7.9243C154.595 7.89048 154.6 7.85767 154.609 7.82585C154.611 7.81503 154.618 7.80521 154.622 7.79439C154.629 7.77476 154.635 7.75458 154.646 7.7363C154.653 7.72412 154.663 7.7143 154.671 7.70303C154.682 7.68803 154.692 7.67258 154.705 7.65939C154.715 7.64867 154.73 7.64067 154.742 7.6313C154.755 7.62003 154.767 7.60785 154.783 7.59894H154.783L159.288 5.00567C159.345 4.97284 159.409 4.95557 159.475 4.95557C159.541 4.95557 159.605 4.97284 159.663 5.00567L164.167 7.59894H164.168C164.183 7.60839 164.195 7.62003 164.209 7.63085C164.221 7.64021 164.235 7.64867 164.245 7.65903C164.259 7.67258 164.268 7.68812 164.279 7.70303C164.287 7.7143 164.298 7.72412 164.305 7.7363C164.315 7.75503 164.321 7.77476 164.329 7.79449C164.333 7.80521 164.339 7.81503 164.342 7.8263C164.351 7.85821 164.355 7.89121 164.355 7.9243V17.5601L168.108 15.3989V10.473C168.108 10.4403 168.113 10.4069 168.122 10.3756C168.125 10.3643 168.131 10.3545 168.135 10.3438C168.142 10.324 168.149 10.3038 168.159 10.2856C168.166 10.2734 168.176 10.2636 168.184 10.2523C168.196 10.2373 168.205 10.2218 168.218 10.2087C168.229 10.1979 168.243 10.1899 168.255 10.1806C168.269 10.1693 168.281 10.1571 168.296 10.1482H168.296L172.801 7.55494C172.858 7.52207 172.923 7.50477 172.989 7.50477C173.054 7.50477 173.119 7.52207 173.176 7.55494L177.68 10.1482C177.696 10.1576 177.708 10.1693 177.722 10.18C177.734 10.1895 177.748 10.1979 177.759 10.2082C177.772 10.2218 177.781 10.2373 177.792 10.2523C177.801 10.2636 177.811 10.2734 177.818 10.2856C177.828 10.3038 177.834 10.324 177.842 10.3438C177.846 10.3545 177.852 10.3643 177.855 10.3756V10.3756ZM177.117 15.399V11.1227L175.541 12.03L173.364 13.2838V17.5602L177.118 15.399H177.117V15.399ZM172.613 23.1349V18.8556L170.471 20.0789L164.355 23.5698V27.8893L172.613 23.1348V23.1349ZM155.346 8.57339V23.1349L163.604 27.8889V23.5703L159.29 21.1288L159.289 21.1279L159.287 21.127C159.272 21.1186 159.26 21.1064 159.246 21.0961C159.235 21.0867 159.221 21.0792 159.211 21.0688L159.21 21.0675C159.198 21.0558 159.189 21.0412 159.179 21.0281C159.17 21.0154 159.158 21.0047 159.151 20.9916L159.15 20.9901C159.142 20.9761 159.137 20.9592 159.131 20.9433C159.125 20.9292 159.117 20.916 159.113 20.9011V20.9007C159.108 20.8828 159.107 20.864 159.105 20.8458C159.104 20.8318 159.1 20.8177 159.1 20.8036V10.7347L156.923 9.4803L155.346 8.57394V8.57339ZM159.476 5.76403L155.723 7.9243L159.475 10.0845L163.227 7.92376L159.475 5.76403H159.476ZM161.427 19.2457L163.604 17.9924V8.57339L162.028 9.48085L159.85 10.7346V20.1535L161.427 19.2457V19.2457ZM172.989 8.3133L169.236 10.4735L172.989 12.6338L176.74 10.473L172.989 8.3133H172.989ZM172.613 13.2838L170.436 12.03L168.859 11.1227V15.399L171.036 16.6524L172.613 17.5602V13.2838H172.613ZM163.979 22.9208L169.483 19.7786L172.234 18.2084L168.484 16.0496L164.167 18.535L160.232 20.8003L163.979 22.9208Z" fill="#FF2D20"/>
<rect x="193.868" y="0.970398" width="37.104" height="31.9434" rx="2" fill="white"/>
<path d="M212.421 4.9704C206.594 4.9704 201.868 9.9274 201.868 16.0424C201.868 18.1324 202.42 20.0844 203.378 21.7524C203.628 22.0314 203.922 22.2364 204.343 22.2364C205.682 22.2364 205.611 20.1714 206.95 20.1714C208.29 20.1714 208.361 22.2364 209.7 22.2364C211.04 22.2364 210.966 20.1714 212.306 20.1714C212.89 20.1714 213.234 20.5684 213.546 21.0114C213.325 20.8064 213.066 20.6634 212.726 20.6634C211.53 20.6634 211.419 22.3414 210.525 22.8044V27.3144C210.54 27.7436 210.721 28.1503 211.03 28.4487C211.339 28.7471 211.752 28.9138 212.181 28.9138C212.611 28.9138 213.023 28.7471 213.332 28.4487C213.641 28.1503 213.822 27.7436 213.837 27.3144V21.4204C214.145 21.8534 214.484 22.2354 215.057 22.2354C216.397 22.2354 216.324 20.1704 217.663 20.1704C218.128 20.1704 218.437 20.4254 218.703 20.7504C218.567 20.6927 218.421 20.6628 218.273 20.6624C217.114 20.6624 216.976 22.2364 216.155 22.7564V25.1924C216.155 25.5876 216.312 25.9666 216.592 26.246C216.871 26.5254 217.25 26.6824 217.645 26.6824C218.04 26.6824 218.419 26.5254 218.699 26.246C218.978 25.9666 219.135 25.5876 219.135 25.1924V21.3404C219.459 21.8064 219.805 22.2344 220.413 22.2344C221.209 22.2344 221.506 21.5064 221.898 20.9144C222.609 19.3885 222.976 17.7248 222.972 16.0414C222.972 9.9274 218.248 4.9704 212.42 4.9704H212.421ZM211.855 7.8474C214.735 7.8474 217.069 10.6314 217.069 13.6544C217.069 16.6774 215.524 18.8044 211.855 18.8044C208.185 18.8044 206.64 16.6774 206.64 13.6544C206.64 10.6314 208.975 7.8474 211.855 7.8474V7.8474ZM210.452 9.5074C209.934 9.5074 209.436 9.73476 209.07 10.1395C208.703 10.5442 208.497 11.0931 208.497 11.6654C208.497 12.2377 208.703 12.7866 209.07 13.1913C209.436 13.596 209.934 13.8234 210.452 13.8234C210.971 13.8234 211.468 13.596 211.835 13.1913C212.201 12.7866 212.407 12.2377 212.407 11.6654C212.407 11.0931 212.201 10.5442 211.835 10.1395C211.468 9.73476 210.971 9.5074 210.452 9.5074ZM210.126 10.1714C210.255 10.1713 210.382 10.1969 210.501 10.2469C210.62 10.2969 210.727 10.3703 210.818 10.4628C210.909 10.5553 210.981 10.6651 211.031 10.786C211.08 10.9069 211.105 11.0365 211.105 11.1674C211.105 11.2983 211.08 11.4279 211.031 11.5488C210.981 11.6697 210.909 11.7795 210.818 11.872C210.727 11.9645 210.62 12.0379 210.501 12.0879C210.382 12.1379 210.255 12.1635 210.126 12.1634C209.867 12.1631 209.618 12.0581 209.435 11.8713C209.252 11.6846 209.149 11.4314 209.149 11.1674C209.149 10.9034 209.252 10.6502 209.435 10.4635C209.618 10.2767 209.867 10.1717 210.126 10.1714V10.1714ZM207.176 20.6634C206.102 20.6634 205.904 22.0184 205.226 22.6284V24.4104C205.226 24.8056 205.383 25.1846 205.663 25.464C205.942 25.7434 206.321 25.9004 206.716 25.9004C207.111 25.9004 207.49 25.7434 207.77 25.464C208.049 25.1846 208.206 24.8056 208.206 24.4104V21.2284C207.942 20.9044 207.629 20.6644 207.176 20.6644V20.6634Z" fill="#64748B"/>
<defs>
<linearGradient id="paint0_linear_3_93" x1="6.89169" y1="12.6362" x2="41.3485" y2="32.5034" gradientUnits="userSpaceOnUse">
<stop stop-color="#2298BD"/>
<stop offset="1" stop-color="#0ED7B5"/>
</linearGradient>
</defs>
</svg>
