<svg width="256" height="68" viewBox="0 0 256 68" fill="none" xmlns="http://www.w3.org/2000/svg">
<path d="M23.913 39.1288V48.6644H18.1916C14.1143 48.6644 10.9358 47.678 8.65602 45.7051C6.37625 43.6884 5.23636 40.4222 5.23636 35.9065V21.3071H0.764492V11.9688H5.23636V3.02509H16.4818V11.9688H23.8472V21.3071H16.4818V36.038C16.4818 37.134 16.7448 37.9232 17.2709 38.4054C17.797 38.8877 18.6739 39.1288 19.9015 39.1288H23.913Z" fill="white"/>
<path d="M27.9409 30.2509C27.9409 26.4805 28.6424 23.1704 30.0454 20.3207C31.4921 17.471 33.4431 15.2789 35.8982 13.7444C38.3534 12.2099 41.0935 11.4427 44.1186 11.4427C46.7053 11.4427 48.9631 11.9688 50.8921 13.021C52.865 14.0732 54.3776 15.4542 55.4298 17.1641V11.9688H66.6752V48.6644H55.4298V43.4692C54.3337 45.179 52.7993 46.56 50.8264 47.6122C48.8973 48.6644 46.6395 49.1905 44.0528 49.1905C41.0716 49.1905 38.3534 48.4233 35.8982 46.8888C33.4431 45.3105 31.4921 43.0965 30.0454 40.2468C28.6424 37.3532 27.9409 34.0213 27.9409 30.2509ZM55.4298 30.3166C55.4298 27.5107 54.6406 25.2967 53.0623 23.6746C51.5279 22.0524 49.6427 21.2414 47.4067 21.2414C45.1708 21.2414 43.2637 22.0524 41.6854 23.6746C40.1509 25.2529 39.3837 27.445 39.3837 30.2509C39.3837 33.0567 40.1509 35.2927 41.6854 36.9587C43.2637 38.5808 45.1708 39.3919 47.4067 39.3919C49.6427 39.3919 51.5279 38.5808 53.0623 36.9587C54.6406 35.3365 55.4298 33.1225 55.4298 30.3166Z" fill="white"/>
<path d="M86.0562 0V48.6644H74.8108V0H86.0562Z" fill="white"/>
<path d="M105.451 0V48.6644H94.2057V0H105.451Z" fill="white"/>
<path d="M124.846 17.1641C125.898 15.4542 127.411 14.0732 129.384 13.021C131.356 11.9688 133.614 11.4427 136.157 11.4427C139.182 11.4427 141.922 12.2099 144.377 13.7444C146.833 15.2789 148.762 17.471 150.165 20.3207C151.611 23.1704 152.335 26.4805 152.335 30.2509C152.335 34.0213 151.611 37.3532 150.165 40.2468C148.762 43.0965 146.833 45.3105 144.377 46.8888C141.922 48.4233 139.182 49.1905 136.157 49.1905C133.57 49.1905 131.313 48.6864 129.384 47.678C127.455 46.6258 125.942 45.2448 124.846 43.5349V48.6644H113.601V0H124.846V17.1641ZM140.892 30.2509C140.892 27.445 140.103 25.2529 138.525 23.6746C136.99 22.0524 135.083 21.2414 132.803 21.2414C130.567 21.2414 128.66 22.0524 127.082 23.6746C125.547 25.2967 124.78 27.5107 124.78 30.3166C124.78 33.1225 125.547 35.3365 127.082 36.9587C128.66 38.5808 130.567 39.3919 132.803 39.3919C135.039 39.3919 136.946 38.5808 138.525 36.9587C140.103 35.2927 140.892 33.0567 140.892 30.2509Z" fill="white"/>
<path d="M169.48 0V48.6644H158.234V0H169.48Z" fill="white"/>
<path d="M194.333 49.1905C190.738 49.1905 187.494 48.4233 184.6 46.8888C181.75 45.3544 179.493 43.1623 177.827 40.3126C176.204 37.4628 175.393 34.1309 175.393 30.3166C175.393 26.5462 176.226 23.2362 177.892 20.3865C179.558 17.4929 181.838 15.2789 184.732 13.7444C187.625 12.2099 190.87 11.4427 194.465 11.4427C198.06 11.4427 201.304 12.2099 204.197 13.7444C207.091 15.2789 209.371 17.4929 211.037 20.3865C212.703 23.2362 213.536 26.5462 213.536 30.3166C213.536 34.087 212.681 37.419 210.971 40.3126C209.305 43.1623 207.003 45.3544 204.066 46.8888C201.172 48.4233 197.928 49.1905 194.333 49.1905ZM194.333 39.4576C196.481 39.4576 198.301 38.6685 199.791 37.0902C201.326 35.5119 202.093 33.254 202.093 30.3166C202.093 27.3792 201.348 25.1214 199.857 23.5431C198.41 21.9648 196.613 21.1756 194.465 21.1756C192.272 21.1756 190.453 21.9648 189.006 23.5431C187.559 25.0775 186.836 27.3354 186.836 30.3166C186.836 33.254 187.538 35.5119 188.94 37.0902C190.387 38.6685 192.185 39.4576 194.333 39.4576Z" fill="white"/>
<path d="M233.443 11.4427C236.03 11.4427 238.288 11.9688 240.217 13.021C242.19 14.0732 243.702 15.4542 244.755 17.1641V11.9688H256V48.5987C256 51.9745 255.32 55.0215 253.961 57.7397C252.646 60.5017 250.607 62.6938 247.845 64.316C245.127 65.9381 241.729 66.7492 237.652 66.7492C232.216 66.7492 227.81 65.4559 224.434 62.8692C221.058 60.3264 219.129 56.8629 218.647 52.4787H229.761C230.111 53.8816 230.944 54.9777 232.26 55.7668C233.575 56.5998 235.197 57.0163 237.126 57.0163C239.45 57.0163 241.291 56.3368 242.65 54.9777C244.053 53.6624 244.755 51.5361 244.755 48.5987V43.4034C243.659 45.1132 242.146 46.5162 240.217 47.6122C238.288 48.6644 236.03 49.1905 233.443 49.1905C230.418 49.1905 227.678 48.4233 225.223 46.8888C222.768 45.3105 220.817 43.0965 219.37 40.2468C217.967 37.3532 217.266 34.0213 217.266 30.2509C217.266 26.4805 217.967 23.1704 219.37 20.3207C220.817 17.471 222.768 15.2789 225.223 13.7444C227.678 12.2099 230.418 11.4427 233.443 11.4427ZM244.755 30.3166C244.755 27.5107 243.965 25.2967 242.387 23.6746C240.853 22.0524 238.967 21.2414 236.732 21.2414C234.496 21.2414 232.588 22.0524 231.01 23.6746C229.476 25.2529 228.708 27.445 228.708 30.2509C228.708 33.0567 229.476 35.2927 231.01 36.9587C232.588 38.5808 234.496 39.3919 236.732 39.3919C238.967 39.3919 240.853 38.5808 242.387 36.9587C243.965 35.3365 244.755 33.1225 244.755 30.3166Z" fill="white"/>
<path d="M8.51927 64.4512H2.83975L1.79353 67.347H0L4.70802 54.4H6.66969L11.359 67.347H9.56549L8.51927 64.4512ZM8.03352 63.0687L5.67951 56.4924L3.3255 63.0687H8.03352Z" fill="white"/>
<path d="M36.7268 67.347H35.0267L28.1888 56.9782V67.347H26.4887V54.3066H28.1888L35.0267 64.6567V54.3066H36.7268V67.347Z" fill="white"/>
<path d="M58.6064 67.4778C57.3983 67.4778 56.296 67.1976 55.2996 66.6371C54.3032 66.0642 53.5123 65.2733 52.9269 64.2644C52.354 63.2431 52.0675 62.0972 52.0675 60.8268C52.0675 59.5564 52.354 58.4167 52.9269 57.4079C53.5123 56.3866 54.3032 55.5957 55.2996 55.0352C56.296 54.4623 57.3983 54.1758 58.6064 54.1758C59.827 54.1758 60.9355 54.4623 61.9319 55.0352C62.9283 55.5957 63.713 56.3803 64.2859 57.3892C64.8589 58.3981 65.1453 59.5439 65.1453 60.8268C65.1453 62.1097 64.8589 63.2555 64.2859 64.2644C63.713 65.2733 62.9283 66.0642 61.9319 66.6371C60.9355 67.1976 59.827 67.4778 58.6064 67.4778ZM58.6064 66.0019C59.5157 66.0019 60.3315 65.7901 61.0539 65.3667C61.7887 64.9432 62.3616 64.3391 62.7727 63.5545C63.1961 62.7698 63.4079 61.8606 63.4079 60.8268C63.4079 59.7806 63.1961 58.8714 62.7727 58.0991C62.3616 57.3145 61.7949 56.7104 61.0725 56.2869C60.3501 55.8635 59.5281 55.6517 58.6064 55.6517C57.6848 55.6517 56.8627 55.8635 56.1403 56.2869C55.4179 56.7104 54.845 57.3145 54.4215 58.0991C54.0105 58.8714 53.805 59.7806 53.805 60.8268C53.805 61.8606 54.0105 62.7698 54.4215 63.5545C54.845 64.3391 55.4179 64.9432 56.1403 65.3667C56.8752 65.7901 57.6972 66.0019 58.6064 66.0019Z" fill="white"/>
<path d="M90.7056 67.347H89.0055L82.1677 56.9782V67.347H80.4676V54.3066H82.1677L89.0055 64.6567V54.3066H90.7056V67.347Z" fill="white"/>
<path d="M115.799 54.3253L111.558 62.4335V67.347H109.858V62.4335L105.598 54.3253H107.485L110.698 60.9202L113.912 54.3253H115.799Z" fill="white"/>
<path d="M143.878 54.4187V67.347H142.178V57.7068L137.881 67.347H136.686L132.37 57.6881V67.347H130.67V54.4187H132.501L137.283 65.1051L142.066 54.4187H143.878Z" fill="white"/>
<path d="M161.54 54.3253V67.347H159.839V54.3253H161.54Z" fill="white"/>
<path d="M185.53 54.3253V55.7078H181.98V67.347H180.28V55.7078H176.712V54.3253H185.53Z" fill="white"/>
<path d="M209.817 54.3253L205.576 62.4335V67.347H203.876V62.4335L199.617 54.3253H201.504L204.717 60.9202L207.93 54.3253H209.817Z" fill="white"/>
</svg>
